{"glyphs":{"0":{"ha":434,"x_min":0,"x_max":347,"o":"m 87 694 l 260 694 l 260 608 l 347 608 l 347 87 l 260 87 l 260 347 l 174 347 l 174 608 l 87 608 l 87 694 m 0 608 l 87 608 l 87 347 l 174 347 l 174 87 l 260 87 l 260 0 l 87 0 l 87 87 l 0 87 l 0 608 z "},"1":{"ha":347,"x_min":0,"x_max":260,"o":"m 87 694 l 174 694 l 174 87 l 260 87 l 260 0 l 0 0 l 0 87 l 87 87 l 87 521 l 0 521 l 0 608 l 87 608 l 87 694 z "},"2":{"ha":434,"x_min":0,"x_max":347,"o":"m 0 694 l 260 694 l 260 608 l 0 608 l 0 694 m 260 608 l 347 608 l 347 347 l 260 347 l 260 608 m 174 347 l 260 347 l 260 260 l 174 260 l 174 347 m 87 260 l 174 260 l 174 174 l 87 174 l 87 260 m 0 174 l 87 174 l 87 87 l 347 87 l 347 0 l 0 0 l 0 174 z "},"3":{"ha":434,"x_min":0,"x_max":347,"o":"m 0 694 l 260 694 l 260 608 l 0 608 l 0 694 m 260 608 l 347 608 l 347 434 l 260 434 l 260 608 m 87 434 l 260 434 l 260 347 l 87 347 l 87 434 m 260 347 l 347 347 l 347 87 l 260 87 l 260 347 m 0 87 l 260 87 l 260 0 l 0 0 l 0 87 z "},"4":{"ha":434,"x_min":0,"x_max":347,"o":"m 174 694 l 260 694 l 260 260 l 347 260 l 347 174 l 260 174 l 260 0 l 174 0 l 174 174 l 0 174 l 0 434 l 87 434 l 87 260 l 174 260 l 174 434 l 87 434 l 87 608 l 174 608 l 174 694 z "},"5":{"ha":434,"x_min":0,"x_max":347,"o":"m 0 694 l 347 694 l 347 608 l 87 608 l 87 434 l 260 434 l 260 347 l 0 347 l 0 694 m 260 347 l 347 347 l 347 87 l 260 87 l 260 347 m 0 87 l 260 87 l 260 0 l 0 0 l 0 87 z "},"6":{"ha":434,"x_min":0,"x_max":347,"o":"m 174 694 l 260 694 l 260 608 l 174 608 l 174 694 m 87 608 l 174 608 l 174 521 l 87 521 l 87 608 m 0 521 l 87 521 l 87 347 l 174 347 l 174 260 l 87 260 l 87 87 l 0 87 l 0 521 m 174 434 l 260 434 l 260 347 l 174 347 l 174 434 m 260 347 l 347 347 l 347 87 l 260 87 l 260 347 m 87 87 l 260 87 l 260 0 l 87 0 l 87 87 z "},"7":{"ha":434,"x_min":0,"x_max":347,"o":"m 0 694 l 347 694 l 347 347 l 260 347 l 260 608 l 0 608 l 0 694 m 174 347 l 260 347 l 260 174 l 174 174 l 174 347 m 87 174 l 174 174 l 174 0 l 87 0 l 87 174 z "},"8":{"ha":434,"x_min":0,"x_max":347,"o":"m 87 694 l 260 694 l 260 608 l 87 608 l 87 694 m 0 608 l 87 608 l 87 434 l 0 434 l 0 608 m 260 608 l 347 608 l 347 434 l 260 434 l 260 608 m 87 434 l 260 434 l 260 347 l 87 347 l 87 434 m 0 347 l 87 347 l 87 87 l 0 87 l 0 347 m 260 347 l 347 347 l 347 87 l 260 87 l 260 347 m 87 87 l 260 87 l 260 0 l 87 0 l 87 87 z "},"9":{"ha":434,"x_min":0,"x_max":347,"o":"m 87 694 l 260 694 l 260 608 l 87 608 l 87 694 m 0 608 l 87 608 l 87 260 l 0 260 l 0 608 m 260 608 l 347 608 l 347 174 l 260 174 l 260 260 l 174 260 l 174 347 l 260 347 l 260 608 m 87 260 l 174 260 l 174 174 l 87 174 l 87 260 m 174 174 l 260 174 l 260 87 l 174 87 l 174 174 m 0 87 l 174 87 l 174 0 l 0 0 l 0 87 z "}," ":{"ha":260,"x_min":0,"x_max":0,"o":""},"!":{"ha":174,"x_min":0,"x_max":87,"o":"m 0 694 l 87 694 l 87 174 l 0 174 l 0 694 m 0 87 l 87 87 l 87 0 l 0 0 l 0 87 z "},"\"":{"ha":347,"x_min":0,"x_max":260,"o":"m 0 694 l 87 694 l 87 434 l 0 434 l 0 694 m 174 694 l 260 694 l 260 434 l 174 434 l 174 694 z "},"#":{"ha":694,"x_min":0,"x_max":608,"o":"m 174 608 l 260 608 l 260 521 l 434 521 l 434 608 l 521 608 l 521 521 l 608 521 l 608 434 l 521 434 l 521 260 l 434 260 l 434 434 l 260 434 l 260 347 l 174 347 l 174 434 l 87 434 l 87 521 l 174 521 l 174 608 m 87 347 l 174 347 l 174 174 l 347 174 l 347 260 l 434 260 l 434 174 l 521 174 l 521 87 l 434 87 l 434 0 l 347 0 l 347 87 l 174 87 l 174 0 l 87 0 l 87 87 l 0 87 l 0 174 l 87 174 l 87 347 z "},"$":{"ha":608,"x_min":0,"x_max":521,"o":"m 174 781 l 260 781 l 260 694 l 434 694 l 434 608 l 260 608 l 260 434 l 434 434 l 434 347 l 260 347 l 260 87 l 434 87 l 434 0 l 260 0 l 260 -87 l 174 -87 l 174 0 l 0 0 l 0 87 l 174 87 l 174 347 l 87 347 l 87 434 l 174 434 l 174 608 l 87 608 l 87 694 l 174 694 l 174 781 m 0 608 l 87 608 l 87 434 l 0 434 l 0 608 m 434 347 l 521 347 l 521 87 l 434 87 l 434 347 z "},"%":{"ha":521,"x_min":0,"x_max":434,"o":"m 87 608 l 174 608 l 174 521 l 87 521 l 87 608 m 0 521 l 87 521 l 87 434 l 0 434 l 0 521 m 174 521 l 260 521 l 260 434 l 174 434 l 174 521 m 347 521 l 434 521 l 434 434 l 347 434 l 347 521 m 87 434 l 174 434 l 174 347 l 87 347 l 87 434 m 260 434 l 347 434 l 347 347 l 260 347 l 260 434 m 174 347 l 260 347 l 260 260 l 174 260 l 174 347 m 87 260 l 174 260 l 174 174 l 87 174 l 87 260 m 260 260 l 347 260 l 347 174 l 260 174 l 260 260 m 0 174 l 87 174 l 87 87 l 0 87 l 0 174 m 174 174 l 260 174 l 260 87 l 174 87 l 174 174 m 347 174 l 434 174 l 434 87 l 347 87 l 347 174 m 260 87 l 347 87 l 347 0 l 260 0 l 260 87 z "},"&":{"ha":521,"x_min":0,"x_max":434,"o":"m 174 694 l 260 694 l 260 608 l 174 608 l 174 694 m 87 608 l 174 608 l 174 434 l 87 434 l 87 608 m 260 608 l 347 608 l 347 434 l 260 434 l 260 608 m 174 434 l 260 434 l 260 347 l 174 347 l 174 434 m 87 347 l 174 347 l 174 260 l 87 260 l 87 347 m 0 260 l 87 260 l 87 87 l 0 87 l 0 260 m 174 260 l 260 260 l 260 174 l 174 174 l 174 260 m 347 260 l 434 260 l 434 174 l 347 174 l 347 260 m 260 174 l 347 174 l 347 87 l 260 87 l 260 174 m 87 87 l 260 87 l 260 0 l 87 0 l 87 87 m 347 87 l 434 87 l 434 0 l 347 0 l 347 87 z "},"'":{"ha":174,"x_min":0,"x_max":87,"o":"m 0 694 l 87 694 l 87 434 l 0 434 l 0 694 z "},"(":{"ha":347,"x_min":0,"x_max":260,"o":"m 174 781 l 260 781 l 260 608 l 174 608 l 174 781 m 87 608 l 174 608 l 174 434 l 87 434 l 87 608 m 0 434 l 87 434 l 87 260 l 0 260 l 0 434 m 87 260 l 174 260 l 174 87 l 87 87 l 87 260 m 174 87 l 260 87 l 260 -87 l 174 -87 l 174 87 z "},")":{"ha":347,"x_min":0,"x_max":260,"o":"m 0 781 l 87 781 l 87 608 l 0 608 l 0 781 m 87 608 l 174 608 l 174 434 l 87 434 l 87 608 m 174 434 l 260 434 l 260 260 l 174 260 l 174 434 m 87 260 l 174 260 l 174 87 l 87 87 l 87 260 m 0 87 l 87 87 l 87 -87 l 0 -87 l 0 87 z "},"*":{"ha":521,"x_min":0,"x_max":434,"o":"m 0 521 l 87 521 l 87 434 l 0 434 l 0 521 m 174 521 l 260 521 l 260 434 l 347 434 l 347 260 l 260 260 l 260 174 l 174 174 l 174 260 l 87 260 l 87 434 l 174 434 l 174 521 m 347 521 l 434 521 l 434 434 l 347 434 l 347 521 m 0 260 l 87 260 l 87 174 l 0 174 l 0 260 m 347 260 l 434 260 l 434 174 l 347 174 l 347 260 z "},"+":{"ha":521,"x_min":0,"x_max":434,"o":"m 174 521 l 260 521 l 260 347 l 434 347 l 434 260 l 260 260 l 260 87 l 174 87 l 174 260 l 0 260 l 0 347 l 174 347 l 174 521 z "},",":{"ha":260,"x_min":0,"x_max":174,"o":"m 0 174 l 174 174 l 174 0 l 87 0 l 87 87 l 0 87 l 0 174 m 0 0 l 87 0 l 87 -87 l 0 -87 l 0 0 z "},"-":{"ha":434,"x_min":0,"x_max":347,"o":"m 0 260 l 347 260 l 347 174 l 0 174 l 0 260 z "},".":{"ha":174,"x_min":0,"x_max":87,"o":"m 0 87 l 87 87 l 87 0 l 0 0 l 0 87 z "},"/":{"ha":347,"x_min":0,"x_max":260,"o":"m 174 694 l 260 694 l 260 434 l 174 434 l 174 694 m 87 434 l 174 434 l 174 174 l 87 174 l 87 434 m 0 174 l 87 174 l 87 0 l 0 0 l 0 174 z "},":":{"ha":174,"x_min":0,"x_max":87,"o":"m 0 347 l 87 347 l 87 260 l 0 260 l 0 347 m 0 174 l 87 174 l 87 87 l 0 87 l 0 174 z "},";":{"ha":260,"x_min":0,"x_max":174,"o":"m 87 347 l 174 347 l 174 260 l 87 260 l 87 347 m 0 174 l 174 174 l 174 0 l 87 0 l 87 87 l 0 87 l 0 174 m 0 0 l 87 0 l 87 -87 l 0 -87 l 0 0 z "},"<":{"ha":347,"x_min":0,"x_max":260,"o":"m 174 434 l 260 434 l 260 347 l 174 347 l 174 434 m 87 347 l 174 347 l 174 260 l 87 260 l 87 347 m 0 260 l 87 260 l 87 174 l 0 174 l 0 260 m 87 174 l 174 174 l 174 87 l 87 87 l 87 174 m 174 87 l 260 87 l 260 0 l 174 0 l 174 87 z "},"=":{"ha":521,"x_min":0,"x_max":434,"o":"m 0 434 l 434 434 l 434 347 l 0 347 l 0 434 m 0 260 l 434 260 l 434 174 l 0 174 l 0 260 z "},">":{"ha":347,"x_min":0,"x_max":260,"o":"m 0 434 l 87 434 l 87 347 l 0 347 l 0 434 m 87 347 l 174 347 l 174 260 l 87 260 l 87 347 m 174 260 l 260 260 l 260 174 l 174 174 l 174 260 m 87 174 l 174 174 l 174 87 l 87 87 l 87 174 m 0 87 l 87 87 l 87 0 l 0 0 l 0 87 z "},"?":{"ha":434,"x_min":0,"x_max":347,"o":"m 0 694 l 260 694 l 260 608 l 0 608 l 0 694 m 260 608 l 347 608 l 347 347 l 260 347 l 260 608 m 174 347 l 260 347 l 260 260 l 174 260 l 174 347 m 87 260 l 174 260 l 174 174 l 87 174 l 87 260 m 87 87 l 174 87 l 174 0 l 87 0 l 87 87 z "},"@":{"ha":694,"x_min":0,"x_max":608,"o":"m 174 694 l 434 694 l 434 608 l 174 608 l 174 694 m 87 608 l 174 608 l 174 521 l 87 521 l 87 608 m 434 608 l 521 608 l 521 521 l 434 521 l 434 608 m 0 521 l 87 521 l 87 87 l 0 87 l 0 521 m 260 521 l 347 521 l 347 434 l 260 434 l 260 521 m 521 521 l 608 521 l 608 174 l 521 174 l 521 521 m 174 434 l 260 434 l 260 174 l 174 174 l 174 434 m 347 434 l 434 434 l 434 174 l 521 174 l 521 0 l 434 0 l 434 87 l 260 87 l 260 174 l 347 174 l 347 434 m 87 87 l 174 87 l 174 0 l 87 0 l 87 87 m 174 0 l 434 0 l 434 -87 l 174 -87 l 174 0 z "},"A":{"ha":521,"x_min":0,"x_max":434,"o":"m 174 694 l 260 694 l 260 434 l 174 434 l 174 694 m 87 434 l 174 434 l 174 260 l 260 260 l 260 434 l 347 434 l 347 260 l 434 260 l 434 0 l 347 0 l 347 174 l 87 174 l 87 0 l 0 0 l 0 260 l 87 260 l 87 434 z "},"B":{"ha":434,"x_min":0,"x_max":347,"o":"m 0 694 l 260 694 l 260 608 l 87 608 l 87 434 l 260 434 l 260 347 l 87 347 l 87 87 l 260 87 l 260 0 l 0 0 l 0 694 m 260 608 l 347 608 l 347 434 l 260 434 l 260 608 m 260 347 l 347 347 l 347 87 l 260 87 l 260 347 z "},"C":{"ha":434,"x_min":0,"x_max":347,"o":"m 87 694 l 260 694 l 260 608 l 87 608 l 87 694 m 0 608 l 87 608 l 87 87 l 0 87 l 0 608 m 260 608 l 347 608 l 347 521 l 260 521 l 260 608 m 260 174 l 347 174 l 347 87 l 260 87 l 260 174 m 87 87 l 260 87 l 260 0 l 87 0 l 87 87 z "},"D":{"ha":434,"x_min":0,"x_max":347,"o":"m 0 694 l 260 694 l 260 608 l 87 608 l 87 87 l 260 87 l 260 0 l 0 0 l 0 694 m 260 608 l 347 608 l 347 87 l 260 87 l 260 608 z "},"E":{"ha":434,"x_min":0,"x_max":347,"o":"m 0 694 l 347 694 l 347 608 l 87 608 l 87 434 l 260 434 l 260 347 l 87 347 l 87 87 l 347 87 l 347 0 l 0 0 l 0 694 z "},"F":{"ha":434,"x_min":0,"x_max":347,"o":"m 0 694 l 347 694 l 347 608 l 87 608 l 87 434 l 260 434 l 260 347 l 87 347 l 87 0 l 0 0 l 0 694 z "},"G":{"ha":434,"x_min":0,"x_max":347,"o":"m 87 694 l 347 694 l 347 608 l 87 608 l 87 694 m 0 608 l 87 608 l 87 87 l 0 87 l 0 608 m 174 434 l 347 434 l 347 0 l 87 0 l 87 87 l 260 87 l 260 347 l 174 347 l 174 434 z "},"H":{"ha":434,"x_min":0,"x_max":347,"o":"m 0 694 l 87 694 l 87 434 l 260 434 l 260 694 l 347 694 l 347 0 l 260 0 l 260 347 l 87 347 l 87 0 l 0 0 l 0 694 z "},"I":{"ha":347,"x_min":0,"x_max":260,"o":"m 0 694 l 260 694 l 260 608 l 174 608 l 174 87 l 260 87 l 260 0 l 0 0 l 0 87 l 87 87 l 87 608 l 0 608 l 0 694 z "},"J":{"ha":434,"x_min":0,"x_max":347,"o":"m 174 694 l 347 694 l 347 87 l 260 87 l 260 608 l 174 608 l 174 694 m 0 347 l 87 347 l 87 87 l 0 87 l 0 347 m 87 87 l 260 87 l 260 0 l 87 0 l 87 87 z "},"K":{"ha":434,"x_min":0,"x_max":347,"o":"m 0 694 l 87 694 l 87 347 l 174 347 l 174 174 l 87 174 l 87 0 l 0 0 l 0 694 m 260 694 l 347 694 l 347 521 l 260 521 l 260 694 m 174 521 l 260 521 l 260 347 l 174 347 l 174 521 m 174 174 l 260 174 l 260 87 l 174 87 l 174 174 m 260 87 l 347 87 l 347 0 l 260 0 l 260 87 z "},"L":{"ha":434,"x_min":0,"x_max":347,"o":"m 0 694 l 87 694 l 87 87 l 347 87 l 347 0 l 0 0 l 0 694 z "},"M":{"ha":521,"x_min":0,"x_max":434,"o":"m 0 694 l 87 694 l 87 521 l 174 521 l 174 347 l 87 347 l 87 0 l 0 0 l 0 694 m 347 694 l 434 694 l 434 0 l 347 0 l 347 347 l 260 347 l 260 521 l 347 521 l 347 694 m 174 347 l 260 347 l 260 174 l 174 174 l 174 347 z "},"N":{"ha":434,"x_min":0,"x_max":347,"o":"m 0 694 l 87 694 l 87 521 l 174 521 l 174 347 l 87 347 l 87 0 l 0 0 l 0 694 m 260 694 l 347 694 l 347 0 l 260 0 l 260 174 l 174 174 l 174 347 l 260 347 l 260 694 z "},"O":{"ha":434,"x_min":0,"x_max":347,"o":"m 87 694 l 260 694 l 260 608 l 87 608 l 87 694 m 0 608 l 87 608 l 87 87 l 0 87 l 0 608 m 260 608 l 347 608 l 347 87 l 260 87 l 260 608 m 87 87 l 260 87 l 260 0 l 87 0 l 87 87 z "},"P":{"ha":434,"x_min":0,"x_max":347,"o":"m 0 694 l 260 694 l 260 608 l 87 608 l 87 347 l 260 347 l 260 260 l 87 260 l 87 0 l 0 0 l 0 694 m 260 608 l 347 608 l 347 347 l 260 347 l 260 608 z "},"Q":{"ha":434,"x_min":0,"x_max":347,"o":"m 87 694 l 260 694 l 260 608 l 87 608 l 87 694 m 0 608 l 87 608 l 87 87 l 0 87 l 0 608 m 260 608 l 347 608 l 347 87 l 260 87 l 260 -87 l 174 -87 l 174 0 l 87 0 l 87 87 l 174 87 l 174 174 l 260 174 l 260 608 z "},"R":{"ha":434,"x_min":0,"x_max":347,"o":"m 0 694 l 260 694 l 260 608 l 87 608 l 87 347 l 260 347 l 260 174 l 174 174 l 174 260 l 87 260 l 87 0 l 0 0 l 0 694 m 260 608 l 347 608 l 347 347 l 260 347 l 260 608 m 260 174 l 347 174 l 347 0 l 260 0 l 260 174 z "},"S":{"ha":434,"x_min":0,"x_max":347,"o":"m 87 694 l 260 694 l 260 608 l 87 608 l 87 694 m 0 608 l 87 608 l 87 434 l 0 434 l 0 608 m 87 434 l 260 434 l 260 347 l 87 347 l 87 434 m 260 347 l 347 347 l 347 87 l 260 87 l 260 347 m 0 87 l 260 87 l 260 0 l 0 0 l 0 87 z "},"T":{"ha":347,"x_min":0,"x_max":260,"o":"m 0 694 l 260 694 l 260 608 l 174 608 l 174 0 l 87 0 l 87 608 l 0 608 l 0 694 z "},"U":{"ha":434,"x_min":0,"x_max":347,"o":"m 0 694 l 87 694 l 87 87 l 0 87 l 0 694 m 260 694 l 347 694 l 347 87 l 260 87 l 260 694 m 87 87 l 260 87 l 260 0 l 87 0 l 87 87 z "},"V":{"ha":521,"x_min":0,"x_max":434,"o":"m 0 694 l 87 694 l 87 434 l 0 434 l 0 694 m 347 694 l 434 694 l 434 434 l 347 434 l 347 694 m 87 434 l 174 434 l 174 174 l 87 174 l 87 434 m 260 434 l 347 434 l 347 174 l 260 174 l 260 434 m 174 174 l 260 174 l 260 0 l 174 0 l 174 174 z "},"W":{"ha":521,"x_min":0,"x_max":434,"o":"m 0 694 l 87 694 l 87 260 l 174 260 l 174 87 l 87 87 l 87 0 l 0 0 l 0 694 m 347 694 l 434 694 l 434 0 l 347 0 l 347 87 l 260 87 l 260 260 l 347 260 l 347 694 m 174 434 l 260 434 l 260 260 l 174 260 l 174 434 z "},"X":{"ha":434,"x_min":0,"x_max":347,"o":"m 0 694 l 87 694 l 87 434 l 0 434 l 0 694 m 260 694 l 347 694 l 347 434 l 260 434 l 260 694 m 87 434 l 260 434 l 260 260 l 87 260 l 87 434 m 0 260 l 87 260 l 87 0 l 0 0 l 0 260 m 260 260 l 347 260 l 347 0 l 260 0 l 260 260 z "},"Y":{"ha":434,"x_min":0,"x_max":347,"o":"m 0 694 l 87 694 l 87 434 l 0 434 l 0 694 m 260 694 l 347 694 l 347 347 l 260 347 l 260 694 m 87 434 l 174 434 l 174 347 l 260 347 l 260 174 l 174 174 l 174 260 l 87 260 l 87 434 m 87 174 l 174 174 l 174 0 l 87 0 l 87 174 z "},"Z":{"ha":434,"x_min":0,"x_max":347,"o":"m 0 694 l 347 694 l 347 521 l 260 521 l 260 608 l 0 608 l 0 694 m 174 521 l 260 521 l 260 347 l 174 347 l 174 521 m 87 347 l 174 347 l 174 174 l 87 174 l 87 347 m 0 174 l 87 174 l 87 87 l 347 87 l 347 0 l 0 0 l 0 174 z "},"[":{"ha":347,"x_min":0,"x_max":260,"o":"m 0 781 l 260 781 l 260 694 l 87 694 l 87 0 l 260 0 l 260 -87 l 0 -87 l 0 781 z "},"\\":{"ha":347,"x_min":0,"x_max":260,"o":"m 0 694 l 87 694 l 87 434 l 0 434 l 0 694 m 87 434 l 174 434 l 174 174 l 87 174 l 87 434 m 174 174 l 260 174 l 260 0 l 174 0 l 174 174 z "},"]":{"ha":347,"x_min":0,"x_max":260,"o":"m 0 781 l 260 781 l 260 -87 l 0 -87 l 0 0 l 174 0 l 174 694 l 0 694 l 0 781 z "},"^":{"ha":347,"x_min":0,"x_max":260,"o":"m 87 694 l 174 694 l 174 608 l 87 608 l 87 694 m 0 608 l 87 608 l 87 521 l 0 521 l 0 608 m 174 608 l 260 608 l 260 521 l 174 521 l 174 608 z "},"_":{"ha":608,"x_min":0,"x_max":521,"o":"m 0 0 l 521 0 l 521 -87 l 0 -87 l 0 0 z "},"`":{"ha":260,"x_min":0,"x_max":174,"o":"m 0 781 l 87 781 l 87 694 l 0 694 l 0 781 m 87 694 l 174 694 l 174 608 l 87 608 l 87 694 z "},"a":{"ha":434,"x_min":0,"x_max":347,"o":"m 87 434 l 260 434 l 260 347 l 87 347 l 87 434 m 260 347 l 347 347 l 347 87 l 260 87 l 260 174 l 87 174 l 87 260 l 260 260 l 260 347 m 0 174 l 87 174 l 87 87 l 0 87 l 0 174 m 87 87 l 260 87 l 260 0 l 87 0 l 87 87 z "},"b":{"ha":434,"x_min":0,"x_max":347,"o":"m 0 694 l 87 694 l 87 347 l 174 347 l 174 260 l 87 260 l 87 87 l 0 87 l 0 694 m 174 434 l 260 434 l 260 347 l 174 347 l 174 434 m 260 347 l 347 347 l 347 87 l 260 87 l 260 347 m 87 87 l 260 87 l 260 0 l 87 0 l 87 87 z "},"c":{"ha":434,"x_min":0,"x_max":347,"o":"m 87 434 l 260 434 l 260 347 l 87 347 l 87 434 m 0 347 l 87 347 l 87 87 l 0 87 l 0 347 m 260 347 l 347 347 l 347 260 l 260 260 l 260 347 m 260 174 l 347 174 l 347 87 l 260 87 l 260 174 m 87 87 l 260 87 l 260 0 l 87 0 l 87 87 z "},"d":{"ha":434,"x_min":0,"x_max":347,"o":"m 260 694 l 347 694 l 347 0 l 87 0 l 87 87 l 260 87 l 260 260 l 174 260 l 174 347 l 260 347 l 260 694 m 87 434 l 174 434 l 174 347 l 87 347 l 87 434 m 0 347 l 87 347 l 87 87 l 0 87 l 0 347 z "},"e":{"ha":434,"x_min":0,"x_max":347,"o":"m 87 434 l 260 434 l 260 347 l 87 347 l 87 434 m 0 347 l 87 347 l 87 260 l 260 260 l 260 174 l 87 174 l 87 87 l 0 87 l 0 347 m 260 347 l 347 347 l 347 260 l 260 260 l 260 347 m 87 87 l 347 87 l 347 0 l 87 0 l 87 87 z "},"f":{"ha":434,"x_min":0,"x_max":347,"o":"m 174 694 l 347 694 l 347 608 l 174 608 l 174 694 m 87 608 l 174 608 l 174 434 l 347 434 l 347 347 l 174 347 l 174 0 l 87 0 l 87 347 l 0 347 l 0 434 l 87 434 l 87 608 z "},"g":{"ha":434,"x_min":0,"x_max":347,"o":"m 87 434 l 347 434 l 347 174 l 260 174 l 260 347 l 87 347 l 87 434 m 0 347 l 87 347 l 87 174 l 0 174 l 0 347 m 87 174 l 260 174 l 260 87 l 87 87 l 87 174 m 0 87 l 87 87 l 87 -87 l 0 -87 l 0 87 m 260 0 l 347 0 l 347 -87 l 260 -87 l 260 0 m 87 -87 l 260 -87 l 260 -174 l 87 -174 l 87 -87 z "},"h":{"ha":434,"x_min":0,"x_max":347,"o":"m 0 694 l 87 694 l 87 347 l 174 347 l 174 260 l 87 260 l 87 0 l 0 0 l 0 694 m 174 434 l 260 434 l 260 347 l 174 347 l 174 434 m 260 347 l 347 347 l 347 0 l 260 0 l 260 347 z "},"i":{"ha":347,"x_min":0,"x_max":260,"o":"m 87 694 l 174 694 l 174 521 l 87 521 l 87 694 m 0 434 l 174 434 l 174 87 l 260 87 l 260 0 l 0 0 l 0 87 l 87 87 l 87 347 l 0 347 l 0 434 z "},"j":{"ha":260,"x_min":0,"x_max":174,"o":"m 87 694 l 174 694 l 174 521 l 87 521 l 87 694 m 0 434 l 174 434 l 174 -87 l 87 -87 l 87 347 l 0 347 l 0 434 m 0 -87 l 87 -87 l 87 -174 l 0 -174 l 0 -87 z "},"k":{"ha":434,"x_min":0,"x_max":347,"o":"m 0 694 l 87 694 l 87 347 l 174 347 l 174 174 l 87 174 l 87 0 l 0 0 l 0 694 m 260 521 l 347 521 l 347 434 l 260 434 l 260 521 m 174 434 l 260 434 l 260 347 l 174 347 l 174 434 m 174 174 l 260 174 l 260 87 l 174 87 l 174 174 m 260 87 l 347 87 l 347 0 l 260 0 l 260 87 z "},"l":{"ha":347,"x_min":0,"x_max":260,"o":"m 0 694 l 174 694 l 174 87 l 260 87 l 260 0 l 0 0 l 0 87 l 87 87 l 87 608 l 0 608 l 0 694 z "},"m":{"ha":521,"x_min":0,"x_max":434,"o":"m 0 434 l 174 434 l 174 347 l 87 347 l 87 0 l 0 0 l 0 434 m 260 434 l 347 434 l 347 347 l 260 347 l 260 434 m 174 347 l 260 347 l 260 0 l 174 0 l 174 347 m 347 347 l 434 347 l 434 0 l 347 0 l 347 347 z "},"n":{"ha":434,"x_min":0,"x_max":347,"o":"m 0 434 l 87 434 l 87 347 l 174 347 l 174 260 l 87 260 l 87 0 l 0 0 l 0 434 m 174 434 l 260 434 l 260 347 l 174 347 l 174 434 m 260 347 l 347 347 l 347 0 l 260 0 l 260 347 z "},"o":{"ha":434,"x_min":0,"x_max":347,"o":"m 87 434 l 260 434 l 260 347 l 87 347 l 87 434 m 0 347 l 87 347 l 87 87 l 0 87 l 0 347 m 260 347 l 347 347 l 347 87 l 260 87 l 260 347 m 87 87 l 260 87 l 260 0 l 87 0 l 87 87 z "},"p":{"ha":434,"x_min":0,"x_max":347,"o":"m 0 434 l 87 434 l 87 347 l 174 347 l 174 260 l 87 260 l 87 87 l 260 87 l 260 0 l 87 0 l 87 -174 l 0 -174 l 0 434 m 174 434 l 260 434 l 260 347 l 174 347 l 174 434 m 260 347 l 347 347 l 347 87 l 260 87 l 260 347 z "},"q":{"ha":434,"x_min":0,"x_max":347,"o":"m 87 434 l 260 434 l 260 347 l 87 347 l 87 434 m 0 347 l 87 347 l 87 87 l 0 87 l 0 347 m 260 347 l 347 347 l 347 -174 l 260 -174 l 260 87 l 174 87 l 174 174 l 260 174 l 260 347 m 87 87 l 174 87 l 174 0 l 87 0 l 87 87 z "},"r":{"ha":347,"x_min":0,"x_max":260,"o":"m 0 434 l 260 434 l 260 260 l 174 260 l 174 347 l 87 347 l 87 0 l 0 0 l 0 434 z "},"s":{"ha":434,"x_min":0,"x_max":347,"o":"m 87 434 l 260 434 l 260 347 l 87 347 l 87 434 m 0 347 l 87 347 l 87 260 l 0 260 l 0 347 m 87 260 l 260 260 l 260 174 l 87 174 l 87 260 m 260 174 l 347 174 l 347 87 l 260 87 l 260 174 m 0 87 l 260 87 l 260 0 l 0 0 l 0 87 z "},"t":{"ha":347,"x_min":0,"x_max":260,"o":"m 87 608 l 174 608 l 174 434 l 260 434 l 260 347 l 174 347 l 174 87 l 87 87 l 87 347 l 0 347 l 0 434 l 87 434 l 87 608 m 174 87 l 260 87 l 260 0 l 174 0 l 174 87 z "},"u":{"ha":434,"x_min":0,"x_max":347,"o":"m 0 434 l 87 434 l 87 87 l 0 87 l 0 434 m 260 434 l 347 434 l 347 87 l 260 87 l 260 434 m 87 87 l 260 87 l 260 0 l 87 0 l 87 87 z "},"v":{"ha":521,"x_min":0,"x_max":434,"o":"m 0 434 l 87 434 l 87 260 l 0 260 l 0 434 m 347 434 l 434 434 l 434 260 l 347 260 l 347 434 m 87 260 l 174 260 l 174 87 l 87 87 l 87 260 m 260 260 l 347 260 l 347 87 l 260 87 l 260 260 m 174 87 l 260 87 l 260 0 l 174 0 l 174 87 z "},"w":{"ha":521,"x_min":0,"x_max":434,"o":"m 0 434 l 87 434 l 87 174 l 0 174 l 0 434 m 347 434 l 434 434 l 434 174 l 347 174 l 347 434 m 174 347 l 260 347 l 260 174 l 347 174 l 347 0 l 260 0 l 260 87 l 174 87 l 174 0 l 87 0 l 87 174 l 174 174 l 174 347 z "},"x":{"ha":434,"x_min":0,"x_max":347,"o":"m 0 434 l 87 434 l 87 260 l 0 260 l 0 434 m 260 434 l 347 434 l 347 260 l 260 260 l 260 434 m 87 260 l 260 260 l 260 174 l 87 174 l 87 260 m 0 174 l 87 174 l 87 0 l 0 0 l 0 174 m 260 174 l 347 174 l 347 0 l 260 0 l 260 174 z "},"y":{"ha":434,"x_min":0,"x_max":347,"o":"m 0 434 l 87 434 l 87 174 l 0 174 l 0 434 m 260 434 l 347 434 l 347 87 l 260 87 l 260 434 m 87 174 l 174 174 l 174 87 l 87 87 l 87 174 m 174 87 l 260 87 l 260 -87 l 174 -87 l 174 87 m 0 -87 l 174 -87 l 174 -174 l 0 -174 l 0 -87 z "},"z":{"ha":434,"x_min":0,"x_max":347,"o":"m 0 434 l 347 434 l 347 260 l 260 260 l 260 347 l 0 347 l 0 434 m 174 260 l 260 260 l 260 174 l 174 174 l 174 260 m 87 174 l 174 174 l 174 87 l 347 87 l 347 0 l 0 0 l 0 87 l 87 87 l 87 174 z "},"{":{"ha":347,"x_min":0,"x_max":260,"o":"m 87 781 l 260 781 l 260 694 l 87 694 l 87 781 m 0 694 l 87 694 l 87 521 l 0 521 l 0 694 m 87 521 l 174 521 l 174 434 l 87 434 l 87 521 m 0 434 l 87 434 l 87 347 l 0 347 l 0 434 m 87 347 l 174 347 l 174 174 l 87 174 l 87 347 m 0 174 l 87 174 l 87 0 l 0 0 l 0 174 m 87 0 l 260 0 l 260 -87 l 87 -87 l 87 0 z "},"|":{"ha":174,"x_min":0,"x_max":87,"o":"m 0 781 l 87 781 l 87 -87 l 0 -87 l 0 781 z "},"}":{"ha":347,"x_min":0,"x_max":260,"o":"m 0 781 l 174 781 l 174 694 l 0 694 l 0 781 m 174 694 l 260 694 l 260 521 l 174 521 l 174 694 m 87 521 l 174 521 l 174 434 l 87 434 l 87 521 m 174 434 l 260 434 l 260 347 l 174 347 l 174 434 m 87 347 l 174 347 l 174 174 l 87 174 l 87 347 m 174 174 l 260 174 l 260 0 l 174 0 l 174 174 m 0 0 l 174 0 l 174 -87 l 0 -87 l 0 0 z "},"~":{"ha":521,"x_min":0,"x_max":434,"o":"m 87 347 l 174 347 l 174 260 l 87 260 l 87 347 m 0 260 l 87 260 l 87 174 l 0 174 l 0 260 m 174 260 l 260 260 l 260 174 l 174 174 l 174 260 m 347 260 l 434 260 l 434 174 l 347 174 l 347 260 m 260 174 l 347 174 l 347 87 l 260 87 l 260 174 z "},"¡":{"ha":174,"x_min":0,"x_max":87,"o":"m 0 608 l 87 608 l 87 521 l 0 521 l 0 608 m 0 434 l 87 434 l 87 -87 l 0 -87 l 0 434 z "},"¢":{"ha":521,"x_min":0,"x_max":434,"o":"m 174 521 l 260 521 l 260 434 l 347 434 l 347 347 l 260 347 l 260 87 l 347 87 l 347 0 l 260 0 l 260 -87 l 174 -87 l 174 0 l 87 0 l 87 87 l 174 87 l 174 347 l 87 347 l 87 434 l 174 434 l 174 521 m 0 347 l 87 347 l 87 87 l 0 87 l 0 347 m 347 347 l 434 347 l 434 260 l 347 260 l 347 347 m 347 174 l 434 174 l 434 87 l 347 87 l 347 174 z "},"£":{"ha":608,"x_min":0,"x_max":521,"o":"m 260 694 l 434 694 l 434 608 l 260 608 l 260 694 m 174 608 l 260 608 l 260 521 l 174 521 l 174 608 m 434 608 l 521 608 l 521 521 l 434 521 l 434 608 m 87 521 l 174 521 l 174 434 l 347 434 l 347 347 l 174 347 l 174 87 l 521 87 l 521 0 l 0 0 l 0 87 l 87 87 l 87 347 l 0 347 l 0 434 l 87 434 l 87 521 z "},"©":{"ha":694,"x_min":0,"x_max":608,"o":"m 174 608 l 434 608 l 434 521 l 174 521 l 174 608 m 87 521 l 174 521 l 174 434 l 87 434 l 87 521 m 434 521 l 521 521 l 521 434 l 434 434 l 434 521 m 0 434 l 87 434 l 87 174 l 0 174 l 0 434 m 260 434 l 434 434 l 434 347 l 260 347 l 260 434 m 521 434 l 608 434 l 608 174 l 521 174 l 521 434 m 174 347 l 260 347 l 260 260 l 174 260 l 174 347 m 260 260 l 434 260 l 434 174 l 260 174 l 260 260 m 87 174 l 174 174 l 174 87 l 87 87 l 87 174 m 434 174 l 521 174 l 521 87 l 434 87 l 434 174 m 174 87 l 434 87 l 434 0 l 174 0 l 174 87 z "},"«":{"ha":608,"x_min":0,"x_max":521,"o":"m 174 434 l 260 434 l 260 347 l 174 347 l 174 434 m 434 434 l 521 434 l 521 347 l 434 347 l 434 434 m 87 347 l 174 347 l 174 260 l 87 260 l 87 347 m 347 347 l 434 347 l 434 260 l 347 260 l 347 347 m 0 260 l 87 260 l 87 174 l 0 174 l 0 260 m 260 260 l 347 260 l 347 174 l 260 174 l 260 260 m 87 174 l 174 174 l 174 87 l 87 87 l 87 174 m 347 174 l 434 174 l 434 87 l 347 87 l 347 174 m 174 87 l 260 87 l 260 0 l 174 0 l 174 87 m 434 87 l 521 87 l 521 0 l 434 0 l 434 87 z "},"®":{"ha":694,"x_min":0,"x_max":608,"o":"m 174 694 l 434 694 l 434 608 l 174 608 l 174 694 m 87 608 l 174 608 l 174 521 l 87 521 l 87 608 m 434 608 l 521 608 l 521 521 l 434 521 l 434 608 m 0 521 l 87 521 l 87 260 l 0 260 l 0 521 m 174 521 l 434 521 l 434 434 l 347 434 l 347 347 l 260 347 l 260 260 l 174 260 l 174 521 m 521 521 l 608 521 l 608 260 l 521 260 l 521 521 m 347 347 l 434 347 l 434 260 l 347 260 l 347 347 m 87 260 l 174 260 l 174 174 l 87 174 l 87 260 m 434 260 l 521 260 l 521 174 l 434 174 l 434 260 m 174 174 l 434 174 l 434 87 l 174 87 l 174 174 z "},"°":{"ha":434,"x_min":0,"x_max":347,"o":"m 87 694 l 260 694 l 260 608 l 87 608 l 87 694 m 0 608 l 87 608 l 87 434 l 0 434 l 0 608 m 260 608 l 347 608 l 347 434 l 260 434 l 260 608 m 87 434 l 260 434 l 260 347 l 87 347 l 87 434 z "},"·":{"ha":174,"x_min":0,"x_max":87,"o":"m 0 347 l 87 347 l 87 260 l 0 260 l 0 347 z "},"»":{"ha":608,"x_min":0,"x_max":521,"o":"m 0 434 l 87 434 l 87 347 l 0 347 l 0 434 m 260 434 l 347 434 l 347 347 l 260 347 l 260 434 m 87 347 l 174 347 l 174 260 l 87 260 l 87 347 m 347 347 l 434 347 l 434 260 l 347 260 l 347 347 m 174 260 l 260 260 l 260 174 l 174 174 l 174 260 m 434 260 l 521 260 l 521 174 l 434 174 l 434 260 m 87 174 l 174 174 l 174 87 l 87 87 l 87 174 m 347 174 l 434 174 l 434 87 l 347 87 l 347 174 m 0 87 l 87 87 l 87 0 l 0 0 l 0 87 m 260 87 l 347 87 l 347 0 l 260 0 l 260 87 z "},"¿":{"ha":434,"x_min":0,"x_max":347,"o":"m 174 608 l 260 608 l 260 521 l 174 521 l 174 608 m 174 434 l 260 434 l 260 347 l 174 347 l 174 434 m 87 347 l 174 347 l 174 260 l 87 260 l 87 347 m 0 260 l 87 260 l 87 0 l 0 0 l 0 260 m 87 0 l 347 0 l 347 -87 l 87 -87 l 87 0 z "},"À":{"ha":521,"x_min":0,"x_max":434,"o":"m 87 955 l 174 955 l 174 868 l 87 868 l 87 955 m 174 868 l 260 868 l 260 781 l 174 781 l 174 868 m 174 694 l 260 694 l 260 434 l 174 434 l 174 694 m 87 434 l 174 434 l 174 260 l 260 260 l 260 434 l 347 434 l 347 260 l 434 260 l 434 0 l 347 0 l 347 174 l 87 174 l 87 0 l 0 0 l 0 260 l 87 260 l 87 434 z "},"Á":{"ha":521,"x_min":0,"x_max":434,"o":"m 260 955 l 347 955 l 347 868 l 260 868 l 260 955 m 174 868 l 260 868 l 260 781 l 174 781 l 174 868 m 174 694 l 260 694 l 260 434 l 174 434 l 174 694 m 87 434 l 174 434 l 174 260 l 260 260 l 260 434 l 347 434 l 347 260 l 434 260 l 434 0 l 347 0 l 347 174 l 87 174 l 87 0 l 0 0 l 0 260 l 87 260 l 87 434 z "},"Â":{"ha":521,"x_min":0,"x_max":434,"o":"m 174 955 l 260 955 l 260 868 l 174 868 l 174 955 m 87 868 l 174 868 l 174 781 l 87 781 l 87 868 m 260 868 l 347 868 l 347 781 l 260 781 l 260 868 m 174 694 l 260 694 l 260 434 l 174 434 l 174 694 m 87 434 l 174 434 l 174 260 l 260 260 l 260 434 l 347 434 l 347 260 l 434 260 l 434 0 l 347 0 l 347 174 l 87 174 l 87 0 l 0 0 l 0 260 l 87 260 l 87 434 z "},"Ã":{"ha":521,"x_min":0,"x_max":434,"o":"m 174 955 l 260 955 l 260 868 l 174 868 l 174 955 m 347 955 l 434 955 l 434 868 l 347 868 l 347 955 m 87 868 l 174 868 l 174 781 l 87 781 l 87 868 m 260 868 l 347 868 l 347 781 l 260 781 l 260 868 m 174 694 l 260 694 l 260 434 l 174 434 l 174 694 m 87 434 l 174 434 l 174 260 l 260 260 l 260 434 l 347 434 l 347 260 l 434 260 l 434 0 l 347 0 l 347 174 l 87 174 l 87 0 l 0 0 l 0 260 l 87 260 l 87 434 z "},"Ä":{"ha":521,"x_min":0,"x_max":434,"o":"m 87 868 l 174 868 l 174 781 l 87 781 l 87 868 m 260 868 l 347 868 l 347 781 l 260 781 l 260 868 m 174 694 l 260 694 l 260 434 l 174 434 l 174 694 m 87 434 l 174 434 l 174 260 l 260 260 l 260 434 l 347 434 l 347 260 l 434 260 l 434 0 l 347 0 l 347 174 l 87 174 l 87 0 l 0 0 l 0 260 l 87 260 l 87 434 z "},"Å":{"ha":521,"x_min":0,"x_max":434,"o":"m 174 868 l 260 868 l 260 781 l 174 781 l 174 868 m 87 781 l 174 781 l 174 694 l 87 694 l 87 781 m 260 781 l 347 781 l 347 694 l 260 694 l 260 781 m 174 694 l 260 694 l 260 434 l 174 434 l 174 694 m 87 434 l 174 434 l 174 260 l 260 260 l 260 434 l 347 434 l 347 260 l 434 260 l 434 0 l 347 0 l 347 174 l 87 174 l 87 0 l 0 0 l 0 260 l 87 260 l 87 434 z "},"Æ":{"ha":608,"x_min":0,"x_max":521,"o":"m 174 694 l 521 694 l 521 608 l 347 608 l 347 434 l 434 434 l 434 347 l 347 347 l 347 87 l 521 87 l 521 0 l 260 0 l 260 174 l 87 174 l 87 0 l 0 0 l 0 260 l 87 260 l 87 434 l 174 434 l 174 260 l 260 260 l 260 434 l 174 434 l 174 694 z "},"Ç":{"ha":434,"x_min":0,"x_max":347,"o":"m 87 694 l 260 694 l 260 608 l 87 608 l 87 694 m 0 608 l 87 608 l 87 87 l 0 87 l 0 608 m 260 608 l 347 608 l 347 521 l 260 521 l 260 608 m 260 174 l 347 174 l 347 87 l 260 87 l 260 174 m 87 87 l 260 87 l 260 -87 l 174 -87 l 174 0 l 87 0 l 87 87 m 87 -87 l 174 -87 l 174 -174 l 87 -174 l 87 -87 z "},"È":{"ha":434,"x_min":0,"x_max":347,"o":"m 87 955 l 174 955 l 174 868 l 87 868 l 87 955 m 174 868 l 260 868 l 260 781 l 174 781 l 174 868 m 0 694 l 347 694 l 347 608 l 87 608 l 87 434 l 260 434 l 260 347 l 87 347 l 87 87 l 347 87 l 347 0 l 0 0 l 0 694 z "},"É":{"ha":434,"x_min":0,"x_max":347,"o":"m 174 955 l 260 955 l 260 868 l 174 868 l 174 955 m 87 868 l 174 868 l 174 781 l 87 781 l 87 868 m 0 694 l 347 694 l 347 608 l 87 608 l 87 434 l 260 434 l 260 347 l 87 347 l 87 87 l 347 87 l 347 0 l 0 0 l 0 694 z "},"Ê":{"ha":434,"x_min":0,"x_max":347,"o":"m 87 955 l 260 955 l 260 868 l 347 868 l 347 781 l 174 781 l 174 868 l 87 868 l 87 955 m 0 868 l 87 868 l 87 781 l 0 781 l 0 868 m 0 694 l 347 694 l 347 608 l 87 608 l 87 434 l 260 434 l 260 347 l 87 347 l 87 87 l 347 87 l 347 0 l 0 0 l 0 694 z "},"Ë":{"ha":434,"x_min":0,"x_max":347,"o":"m 0 868 l 87 868 l 87 781 l 0 781 l 0 868 m 260 868 l 347 868 l 347 781 l 260 781 l 260 868 m 0 694 l 347 694 l 347 608 l 87 608 l 87 434 l 260 434 l 260 347 l 87 347 l 87 87 l 347 87 l 347 0 l 0 0 l 0 694 z "},"Ì":{"ha":347,"x_min":0,"x_max":260,"o":"m 0 955 l 87 955 l 87 868 l 0 868 l 0 955 m 87 868 l 174 868 l 174 781 l 87 781 l 87 868 m 0 694 l 260 694 l 260 608 l 174 608 l 174 87 l 260 87 l 260 0 l 0 0 l 0 87 l 87 87 l 87 608 l 0 608 l 0 694 z "},"Í":{"ha":347,"x_min":0,"x_max":260,"o":"m 174 955 l 260 955 l 260 868 l 174 868 l 174 955 m 87 868 l 174 868 l 174 781 l 87 781 l 87 868 m 0 694 l 260 694 l 260 608 l 174 608 l 174 87 l 260 87 l 260 0 l 0 0 l 0 87 l 87 87 l 87 608 l 0 608 l 0 694 z "},"Î":{"ha":347,"x_min":0,"x_max":260,"o":"m 87 955 l 174 955 l 174 868 l 87 868 l 87 955 m 0 868 l 87 868 l 87 781 l 0 781 l 0 868 m 174 868 l 260 868 l 260 781 l 174 781 l 174 868 m 0 694 l 260 694 l 260 608 l 174 608 l 174 87 l 260 87 l 260 0 l 0 0 l 0 87 l 87 87 l 87 608 l 0 608 l 0 694 z "},"Ï":{"ha":347,"x_min":0,"x_max":260,"o":"m 0 868 l 87 868 l 87 781 l 0 781 l 0 868 m 174 868 l 260 868 l 260 781 l 174 781 l 174 868 m 0 694 l 260 694 l 260 608 l 174 608 l 174 87 l 260 87 l 260 0 l 0 0 l 0 87 l 87 87 l 87 608 l 0 608 l 0 694 z "},"Ð":{"ha":521,"x_min":0,"x_max":434,"o":"m 87 694 l 347 694 l 347 608 l 174 608 l 174 347 l 260 347 l 260 260 l 174 260 l 174 87 l 347 87 l 347 0 l 87 0 l 87 260 l 0 260 l 0 347 l 87 347 l 87 694 m 347 608 l 434 608 l 434 87 l 347 87 l 347 608 z "},"Ñ":{"ha":434,"x_min":0,"x_max":347,"o":"m 87 955 l 174 955 l 174 868 l 87 868 l 87 955 m 260 955 l 347 955 l 347 868 l 260 868 l 260 955 m 0 868 l 87 868 l 87 781 l 0 781 l 0 868 m 174 868 l 260 868 l 260 781 l 174 781 l 174 868 m 0 694 l 87 694 l 87 521 l 174 521 l 174 347 l 87 347 l 87 0 l 0 0 l 0 694 m 260 694 l 347 694 l 347 0 l 260 0 l 260 174 l 174 174 l 174 347 l 260 347 l 260 694 z "},"Ò":{"ha":434,"x_min":0,"x_max":347,"o":"m 87 955 l 174 955 l 174 868 l 87 868 l 87 955 m 174 868 l 260 868 l 260 781 l 174 781 l 174 868 m 87 694 l 260 694 l 260 608 l 87 608 l 87 694 m 0 608 l 87 608 l 87 87 l 0 87 l 0 608 m 260 608 l 347 608 l 347 87 l 260 87 l 260 608 m 87 87 l 260 87 l 260 0 l 87 0 l 87 87 z "},"Ó":{"ha":434,"x_min":0,"x_max":347,"o":"m 174 955 l 260 955 l 260 868 l 174 868 l 174 955 m 87 868 l 174 868 l 174 781 l 87 781 l 87 868 m 87 694 l 260 694 l 260 608 l 87 608 l 87 694 m 0 608 l 87 608 l 87 87 l 0 87 l 0 608 m 260 608 l 347 608 l 347 87 l 260 87 l 260 608 m 87 87 l 260 87 l 260 0 l 87 0 l 87 87 z "},"Ô":{"ha":434,"x_min":0,"x_max":347,"o":"m 87 955 l 260 955 l 260 868 l 347 868 l 347 781 l 174 781 l 174 868 l 87 868 l 87 955 m 0 868 l 87 868 l 87 781 l 0 781 l 0 868 m 87 694 l 260 694 l 260 608 l 87 608 l 87 694 m 0 608 l 87 608 l 87 87 l 0 87 l 0 608 m 260 608 l 347 608 l 347 87 l 260 87 l 260 608 m 87 87 l 260 87 l 260 0 l 87 0 l 87 87 z "},"Õ":{"ha":434,"x_min":0,"x_max":347,"o":"m 87 955 l 174 955 l 174 868 l 87 868 l 87 955 m 260 955 l 347 955 l 347 868 l 260 868 l 260 955 m 0 868 l 87 868 l 87 781 l 0 781 l 0 868 m 174 868 l 260 868 l 260 781 l 174 781 l 174 868 m 87 694 l 260 694 l 260 608 l 87 608 l 87 694 m 0 608 l 87 608 l 87 87 l 0 87 l 0 608 m 260 608 l 347 608 l 347 87 l 260 87 l 260 608 m 87 87 l 260 87 l 260 0 l 87 0 l 87 87 z "},"Ö":{"ha":434,"x_min":0,"x_max":347,"o":"m 0 868 l 87 868 l 87 781 l 0 781 l 0 868 m 260 868 l 347 868 l 347 781 l 260 781 l 260 868 m 87 694 l 260 694 l 260 608 l 87 608 l 87 694 m 0 608 l 87 608 l 87 87 l 0 87 l 0 608 m 260 608 l 347 608 l 347 87 l 260 87 l 260 608 m 87 87 l 260 87 l 260 0 l 87 0 l 87 87 z "},"Ø":{"ha":434,"x_min":0,"x_max":347,"o":"m 260 868 l 347 868 l 347 694 l 260 694 l 260 868 m 87 694 l 260 694 l 260 608 l 347 608 l 347 87 l 260 87 l 260 347 l 174 347 l 174 608 l 87 608 l 87 694 m 0 608 l 87 608 l 87 347 l 174 347 l 174 87 l 260 87 l 260 0 l 87 0 l 87 87 l 0 87 l 0 608 m 0 0 l 87 0 l 87 -174 l 0 -174 l 0 0 z "},"Ù":{"ha":434,"x_min":0,"x_max":347,"o":"m 87 955 l 174 955 l 174 868 l 87 868 l 87 955 m 174 868 l 260 868 l 260 781 l 174 781 l 174 868 m 0 694 l 87 694 l 87 87 l 0 87 l 0 694 m 260 694 l 347 694 l 347 87 l 260 87 l 260 694 m 87 87 l 260 87 l 260 0 l 87 0 l 87 87 z "},"Ú":{"ha":434,"x_min":0,"x_max":347,"o":"m 174 955 l 260 955 l 260 868 l 174 868 l 174 955 m 87 868 l 174 868 l 174 781 l 87 781 l 87 868 m 0 694 l 87 694 l 87 87 l 0 87 l 0 694 m 260 694 l 347 694 l 347 87 l 260 87 l 260 694 m 87 87 l 260 87 l 260 0 l 87 0 l 87 87 z "},"Û":{"ha":434,"x_min":0,"x_max":347,"o":"m 87 955 l 260 955 l 260 868 l 347 868 l 347 781 l 174 781 l 174 868 l 87 868 l 87 955 m 0 868 l 87 868 l 87 781 l 0 781 l 0 868 m 0 694 l 87 694 l 87 87 l 0 87 l 0 694 m 260 694 l 347 694 l 347 87 l 260 87 l 260 694 m 87 87 l 260 87 l 260 0 l 87 0 l 87 87 z "},"Ü":{"ha":434,"x_min":0,"x_max":347,"o":"m 0 868 l 87 868 l 87 781 l 0 781 l 0 868 m 260 868 l 347 868 l 347 781 l 260 781 l 260 868 m 0 694 l 87 694 l 87 87 l 0 87 l 0 694 m 260 694 l 347 694 l 347 87 l 260 87 l 260 694 m 87 87 l 260 87 l 260 0 l 87 0 l 87 87 z "},"Ý":{"ha":434,"x_min":0,"x_max":347,"o":"m 174 955 l 260 955 l 260 868 l 174 868 l 174 955 m 87 868 l 174 868 l 174 781 l 87 781 l 87 868 m 0 694 l 87 694 l 87 434 l 0 434 l 0 694 m 260 694 l 347 694 l 347 347 l 260 347 l 260 694 m 87 434 l 174 434 l 174 347 l 260 347 l 260 174 l 174 174 l 174 260 l 87 260 l 87 434 m 87 174 l 174 174 l 174 0 l 87 0 l 87 174 z "},"Þ":{"ha":434,"x_min":0,"x_max":347,"o":"m 0 694 l 87 694 l 87 608 l 260 608 l 260 521 l 87 521 l 87 174 l 260 174 l 260 87 l 87 87 l 87 0 l 0 0 l 0 694 m 260 521 l 347 521 l 347 174 l 260 174 l 260 521 z "},"ß":{"ha":521,"x_min":0,"x_max":434,"o":"m 87 694 l 260 694 l 260 608 l 87 608 l 87 694 m 0 608 l 87 608 l 87 0 l 0 0 l 0 608 m 260 608 l 347 608 l 347 434 l 260 434 l 260 608 m 174 434 l 260 434 l 260 347 l 347 347 l 347 260 l 174 260 l 174 434 m 347 260 l 434 260 l 434 87 l 347 87 l 347 260 m 174 87 l 347 87 l 347 0 l 174 0 l 174 87 z "},"à":{"ha":434,"x_min":0,"x_max":347,"o":"m 87 694 l 174 694 l 174 608 l 87 608 l 87 694 m 174 608 l 260 608 l 260 521 l 174 521 l 174 608 m 87 434 l 260 434 l 260 347 l 87 347 l 87 434 m 260 347 l 347 347 l 347 87 l 260 87 l 260 174 l 87 174 l 87 260 l 260 260 l 260 347 m 0 174 l 87 174 l 87 87 l 0 87 l 0 174 m 87 87 l 260 87 l 260 0 l 87 0 l 87 87 z "},"á":{"ha":434,"x_min":0,"x_max":347,"o":"m 174 694 l 260 694 l 260 608 l 174 608 l 174 694 m 87 608 l 174 608 l 174 521 l 87 521 l 87 608 m 87 434 l 260 434 l 260 347 l 87 347 l 87 434 m 260 347 l 347 347 l 347 87 l 260 87 l 260 174 l 87 174 l 87 260 l 260 260 l 260 347 m 0 174 l 87 174 l 87 87 l 0 87 l 0 174 m 87 87 l 260 87 l 260 0 l 87 0 l 87 87 z "},"â":{"ha":434,"x_min":0,"x_max":347,"o":"m 87 694 l 260 694 l 260 608 l 347 608 l 347 521 l 174 521 l 174 608 l 87 608 l 87 694 m 0 608 l 87 608 l 87 521 l 0 521 l 0 608 m 87 434 l 260 434 l 260 347 l 87 347 l 87 434 m 260 347 l 347 347 l 347 87 l 260 87 l 260 174 l 87 174 l 87 260 l 260 260 l 260 347 m 0 174 l 87 174 l 87 87 l 0 87 l 0 174 m 87 87 l 260 87 l 260 0 l 87 0 l 87 87 z "},"ã":{"ha":434,"x_min":0,"x_max":347,"o":"m 87 694 l 174 694 l 174 608 l 87 608 l 87 694 m 260 694 l 347 694 l 347 608 l 260 608 l 260 694 m 0 608 l 87 608 l 87 521 l 0 521 l 0 608 m 174 608 l 260 608 l 260 521 l 174 521 l 174 608 m 87 434 l 260 434 l 260 347 l 87 347 l 87 434 m 260 347 l 347 347 l 347 87 l 260 87 l 260 174 l 87 174 l 87 260 l 260 260 l 260 347 m 0 174 l 87 174 l 87 87 l 0 87 l 0 174 m 87 87 l 260 87 l 260 0 l 87 0 l 87 87 z "},"ä":{"ha":434,"x_min":0,"x_max":347,"o":"m 0 608 l 87 608 l 87 521 l 0 521 l 0 608 m 260 608 l 347 608 l 347 521 l 260 521 l 260 608 m 87 434 l 260 434 l 260 347 l 87 347 l 87 434 m 260 347 l 347 347 l 347 87 l 260 87 l 260 174 l 87 174 l 87 260 l 260 260 l 260 347 m 0 174 l 87 174 l 87 87 l 0 87 l 0 174 m 87 87 l 260 87 l 260 0 l 87 0 l 87 87 z "},"å":{"ha":434,"x_min":0,"x_max":347,"o":"m 174 694 l 260 694 l 260 608 l 174 608 l 174 694 m 87 608 l 174 608 l 174 521 l 87 521 l 87 608 m 260 608 l 347 608 l 347 521 l 260 521 l 260 608 m 174 521 l 260 521 l 260 347 l 87 347 l 87 434 l 174 434 l 174 521 m 260 347 l 347 347 l 347 87 l 260 87 l 260 174 l 87 174 l 87 260 l 260 260 l 260 347 m 0 174 l 87 174 l 87 87 l 0 87 l 0 174 m 87 87 l 260 87 l 260 0 l 87 0 l 87 87 z "},"æ":{"ha":694,"x_min":0,"x_max":608,"o":"m 87 434 l 260 434 l 260 347 l 87 347 l 87 434 m 347 434 l 521 434 l 521 347 l 347 347 l 347 434 m 260 347 l 347 347 l 347 260 l 521 260 l 521 174 l 347 174 l 347 87 l 260 87 l 260 174 l 87 174 l 87 260 l 260 260 l 260 347 m 521 347 l 608 347 l 608 260 l 521 260 l 521 347 m 0 174 l 87 174 l 87 87 l 0 87 l 0 174 m 87 87 l 260 87 l 260 0 l 87 0 l 87 87 m 347 87 l 608 87 l 608 0 l 347 0 l 347 87 z "},"ç":{"ha":434,"x_min":0,"x_max":347,"o":"m 87 434 l 260 434 l 260 347 l 87 347 l 87 434 m 0 347 l 87 347 l 87 87 l 0 87 l 0 347 m 260 347 l 347 347 l 347 260 l 260 260 l 260 347 m 260 174 l 347 174 l 347 87 l 260 87 l 260 174 m 87 87 l 260 87 l 260 -87 l 174 -87 l 174 0 l 87 0 l 87 87 m 87 -87 l 174 -87 l 174 -174 l 87 -174 l 87 -87 z "},"è":{"ha":434,"x_min":0,"x_max":347,"o":"m 87 694 l 174 694 l 174 608 l 87 608 l 87 694 m 174 608 l 260 608 l 260 521 l 174 521 l 174 608 m 87 434 l 260 434 l 260 347 l 87 347 l 87 434 m 0 347 l 87 347 l 87 260 l 260 260 l 260 174 l 87 174 l 87 87 l 0 87 l 0 347 m 260 347 l 347 347 l 347 260 l 260 260 l 260 347 m 87 87 l 347 87 l 347 0 l 87 0 l 87 87 z "},"é":{"ha":434,"x_min":0,"x_max":347,"o":"m 174 694 l 260 694 l 260 608 l 174 608 l 174 694 m 87 608 l 174 608 l 174 521 l 87 521 l 87 608 m 87 434 l 260 434 l 260 347 l 87 347 l 87 434 m 0 347 l 87 347 l 87 260 l 260 260 l 260 174 l 87 174 l 87 87 l 0 87 l 0 347 m 260 347 l 347 347 l 347 260 l 260 260 l 260 347 m 87 87 l 347 87 l 347 0 l 87 0 l 87 87 z "},"ê":{"ha":434,"x_min":0,"x_max":347,"o":"m 87 694 l 260 694 l 260 608 l 347 608 l 347 521 l 174 521 l 174 608 l 87 608 l 87 694 m 0 608 l 87 608 l 87 521 l 0 521 l 0 608 m 87 434 l 260 434 l 260 347 l 87 347 l 87 434 m 0 347 l 87 347 l 87 260 l 260 260 l 260 174 l 87 174 l 87 87 l 0 87 l 0 347 m 260 347 l 347 347 l 347 260 l 260 260 l 260 347 m 87 87 l 347 87 l 347 0 l 87 0 l 87 87 z "},"ë":{"ha":434,"x_min":0,"x_max":347,"o":"m 0 608 l 87 608 l 87 521 l 0 521 l 0 608 m 260 608 l 347 608 l 347 521 l 260 521 l 260 608 m 87 434 l 260 434 l 260 347 l 87 347 l 87 434 m 0 347 l 87 347 l 87 260 l 260 260 l 260 174 l 87 174 l 87 87 l 0 87 l 0 347 m 260 347 l 347 347 l 347 260 l 260 260 l 260 347 m 87 87 l 347 87 l 347 0 l 87 0 l 87 87 z "},"ì":{"ha":347,"x_min":0,"x_max":260,"o":"m 0 694 l 87 694 l 87 608 l 0 608 l 0 694 m 87 608 l 174 608 l 174 521 l 87 521 l 87 608 m 0 434 l 174 434 l 174 87 l 260 87 l 260 0 l 0 0 l 0 87 l 87 87 l 87 347 l 0 347 l 0 434 z "},"í":{"ha":347,"x_min":0,"x_max":260,"o":"m 174 694 l 260 694 l 260 608 l 174 608 l 174 694 m 87 608 l 174 608 l 174 521 l 87 521 l 87 608 m 0 434 l 174 434 l 174 87 l 260 87 l 260 0 l 0 0 l 0 87 l 87 87 l 87 347 l 0 347 l 0 434 z "},"î":{"ha":347,"x_min":0,"x_max":260,"o":"m 87 694 l 174 694 l 174 608 l 87 608 l 87 694 m 0 608 l 87 608 l 87 521 l 0 521 l 0 608 m 174 608 l 260 608 l 260 521 l 174 521 l 174 608 m 0 434 l 174 434 l 174 87 l 260 87 l 260 0 l 0 0 l 0 87 l 87 87 l 87 347 l 0 347 l 0 434 z "},"ï":{"ha":347,"x_min":0,"x_max":260,"o":"m 0 608 l 87 608 l 87 521 l 0 521 l 0 608 m 174 608 l 260 608 l 260 521 l 174 521 l 174 608 m 0 434 l 174 434 l 174 87 l 260 87 l 260 0 l 0 0 l 0 87 l 87 87 l 87 347 l 0 347 l 0 434 z "},"ð":{"ha":521,"x_min":0,"x_max":434,"o":"m 174 694 l 434 694 l 434 608 l 260 608 l 260 521 l 87 521 l 87 608 l 174 608 l 174 694 m 260 521 l 347 521 l 347 434 l 260 434 l 260 521 m 87 434 l 260 434 l 260 347 l 87 347 l 87 434 m 347 434 l 434 434 l 434 87 l 347 87 l 347 260 l 260 260 l 260 347 l 347 347 l 347 434 m 0 347 l 87 347 l 87 87 l 0 87 l 0 347 m 87 87 l 347 87 l 347 0 l 87 0 l 87 87 z "},"ñ":{"ha":434,"x_min":0,"x_max":347,"o":"m 87 694 l 174 694 l 174 608 l 87 608 l 87 694 m 260 694 l 347 694 l 347 608 l 260 608 l 260 694 m 0 608 l 87 608 l 87 521 l 0 521 l 0 608 m 174 608 l 260 608 l 260 521 l 174 521 l 174 608 m 0 434 l 87 434 l 87 347 l 174 347 l 174 260 l 87 260 l 87 0 l 0 0 l 0 434 m 174 434 l 260 434 l 260 347 l 174 347 l 174 434 m 260 347 l 347 347 l 347 0 l 260 0 l 260 347 z "},"ò":{"ha":434,"x_min":0,"x_max":347,"o":"m 87 694 l 174 694 l 174 608 l 87 608 l 87 694 m 174 608 l 260 608 l 260 521 l 174 521 l 174 608 m 87 434 l 260 434 l 260 347 l 87 347 l 87 434 m 0 347 l 87 347 l 87 87 l 0 87 l 0 347 m 260 347 l 347 347 l 347 87 l 260 87 l 260 347 m 87 87 l 260 87 l 260 0 l 87 0 l 87 87 z "},"ó":{"ha":434,"x_min":0,"x_max":347,"o":"m 174 694 l 260 694 l 260 608 l 174 608 l 174 694 m 87 608 l 174 608 l 174 521 l 87 521 l 87 608 m 87 434 l 260 434 l 260 347 l 87 347 l 87 434 m 0 347 l 87 347 l 87 87 l 0 87 l 0 347 m 260 347 l 347 347 l 347 87 l 260 87 l 260 347 m 87 87 l 260 87 l 260 0 l 87 0 l 87 87 z "},"ô":{"ha":434,"x_min":0,"x_max":347,"o":"m 87 694 l 260 694 l 260 608 l 347 608 l 347 521 l 174 521 l 174 608 l 87 608 l 87 694 m 0 608 l 87 608 l 87 521 l 0 521 l 0 608 m 87 434 l 260 434 l 260 347 l 87 347 l 87 434 m 0 347 l 87 347 l 87 87 l 0 87 l 0 347 m 260 347 l 347 347 l 347 87 l 260 87 l 260 347 m 87 87 l 260 87 l 260 0 l 87 0 l 87 87 z "},"õ":{"ha":434,"x_min":0,"x_max":347,"o":"m 87 694 l 174 694 l 174 608 l 87 608 l 87 694 m 260 694 l 347 694 l 347 608 l 260 608 l 260 694 m 0 608 l 87 608 l 87 521 l 0 521 l 0 608 m 174 608 l 260 608 l 260 521 l 174 521 l 174 608 m 87 434 l 260 434 l 260 347 l 87 347 l 87 434 m 0 347 l 87 347 l 87 87 l 0 87 l 0 347 m 260 347 l 347 347 l 347 87 l 260 87 l 260 347 m 87 87 l 260 87 l 260 0 l 87 0 l 87 87 z "},"ö":{"ha":434,"x_min":0,"x_max":347,"o":"m 0 608 l 87 608 l 87 521 l 0 521 l 0 608 m 260 608 l 347 608 l 347 521 l 260 521 l 260 608 m 87 434 l 260 434 l 260 347 l 87 347 l 87 434 m 0 347 l 87 347 l 87 87 l 0 87 l 0 347 m 260 347 l 347 347 l 347 87 l 260 87 l 260 347 m 87 87 l 260 87 l 260 0 l 87 0 l 87 87 z "},"ø":{"ha":434,"x_min":0,"x_max":347,"o":"m 174 521 l 260 521 l 260 347 l 347 347 l 347 87 l 260 87 l 260 174 l 174 174 l 174 347 l 87 347 l 87 434 l 174 434 l 174 521 m 0 347 l 87 347 l 87 174 l 174 174 l 174 87 l 260 87 l 260 0 l 174 0 l 174 -87 l 87 -87 l 87 87 l 0 87 l 0 347 z "},"ù":{"ha":434,"x_min":0,"x_max":347,"o":"m 87 694 l 174 694 l 174 608 l 87 608 l 87 694 m 174 608 l 260 608 l 260 521 l 174 521 l 174 608 m 0 434 l 87 434 l 87 87 l 0 87 l 0 434 m 260 434 l 347 434 l 347 87 l 260 87 l 260 434 m 87 87 l 260 87 l 260 0 l 87 0 l 87 87 z "},"ú":{"ha":434,"x_min":0,"x_max":347,"o":"m 174 694 l 260 694 l 260 608 l 174 608 l 174 694 m 87 608 l 174 608 l 174 521 l 87 521 l 87 608 m 0 434 l 87 434 l 87 87 l 0 87 l 0 434 m 260 434 l 347 434 l 347 87 l 260 87 l 260 434 m 87 87 l 260 87 l 260 0 l 87 0 l 87 87 z "},"û":{"ha":434,"x_min":0,"x_max":347,"o":"m 87 694 l 260 694 l 260 608 l 347 608 l 347 521 l 174 521 l 174 608 l 87 608 l 87 694 m 0 608 l 87 608 l 87 521 l 0 521 l 0 608 m 0 434 l 87 434 l 87 87 l 0 87 l 0 434 m 260 434 l 347 434 l 347 87 l 260 87 l 260 434 m 87 87 l 260 87 l 260 0 l 87 0 l 87 87 z "},"ü":{"ha":434,"x_min":0,"x_max":347,"o":"m 0 608 l 87 608 l 87 521 l 0 521 l 0 608 m 260 608 l 347 608 l 347 521 l 260 521 l 260 608 m 0 434 l 87 434 l 87 87 l 0 87 l 0 434 m 260 434 l 347 434 l 347 87 l 260 87 l 260 434 m 87 87 l 260 87 l 260 0 l 87 0 l 87 87 z "},"ý":{"ha":434,"x_min":0,"x_max":347,"o":"m 174 694 l 260 694 l 260 608 l 174 608 l 174 694 m 87 608 l 174 608 l 174 521 l 87 521 l 87 608 m 0 434 l 87 434 l 87 174 l 0 174 l 0 434 m 260 434 l 347 434 l 347 87 l 260 87 l 260 434 m 87 174 l 174 174 l 174 87 l 87 87 l 87 174 m 174 87 l 260 87 l 260 -87 l 174 -87 l 174 87 m 0 -87 l 174 -87 l 174 -174 l 0 -174 l 0 -87 z "},"þ":{"ha":434,"x_min":0,"x_max":347,"o":"m 0 608 l 87 608 l 87 347 l 174 347 l 174 260 l 87 260 l 87 87 l 260 87 l 260 0 l 87 0 l 87 -174 l 0 -174 l 0 608 m 174 434 l 260 434 l 260 347 l 174 347 l 174 434 m 260 347 l 347 347 l 347 87 l 260 87 l 260 347 z "},"ÿ":{"ha":434,"x_min":0,"x_max":347,"o":"m 0 608 l 87 608 l 87 521 l 0 521 l 0 608 m 260 608 l 347 608 l 347 521 l 260 521 l 260 608 m 0 434 l 87 434 l 87 174 l 0 174 l 0 434 m 260 434 l 347 434 l 347 87 l 260 87 l 260 434 m 87 174 l 174 174 l 174 87 l 87 87 l 87 174 m 174 87 l 260 87 l 260 -87 l 174 -87 l 174 87 m 0 -87 l 174 -87 l 174 -174 l 0 -174 l 0 -87 z "},"Œ":{"ha":608,"x_min":0,"x_max":521,"o":"m 87 694 l 521 694 l 521 608 l 347 608 l 347 434 l 434 434 l 434 347 l 347 347 l 347 87 l 521 87 l 521 0 l 87 0 l 87 87 l 260 87 l 260 608 l 87 608 l 87 694 m 0 608 l 87 608 l 87 87 l 0 87 l 0 608 z "},"œ":{"ha":694,"x_min":0,"x_max":608,"o":"m 87 434 l 521 434 l 521 347 l 347 347 l 347 260 l 521 260 l 521 174 l 347 174 l 347 87 l 260 87 l 260 347 l 87 347 l 87 434 m 0 347 l 87 347 l 87 87 l 0 87 l 0 347 m 521 347 l 608 347 l 608 260 l 521 260 l 521 347 m 87 87 l 260 87 l 260 0 l 87 0 l 87 87 m 347 87 l 608 87 l 608 0 l 347 0 l 347 87 z "},"Ÿ":{"ha":434,"x_min":0,"x_max":347,"o":"m 0 868 l 87 868 l 87 781 l 0 781 l 0 868 m 260 868 l 347 868 l 347 781 l 260 781 l 260 868 m 0 694 l 87 694 l 87 434 l 0 434 l 0 694 m 260 694 l 347 694 l 347 347 l 260 347 l 260 694 m 87 434 l 174 434 l 174 347 l 260 347 l 260 174 l 174 174 l 174 260 l 87 260 l 87 434 m 87 174 l 174 174 l 174 0 l 87 0 l 87 174 z "},"Ё":{"ha":434,"x_min":0,"x_max":347,"o":"m 0 868 l 87 868 l 87 781 l 0 781 l 0 868 m 260 868 l 347 868 l 347 781 l 260 781 l 260 868 m 0 694 l 347 694 l 347 608 l 87 608 l 87 434 l 260 434 l 260 347 l 87 347 l 87 87 l 347 87 l 347 0 l 0 0 l 0 694 z "},"А":{"ha":521,"x_min":0,"x_max":434,"o":"m 174 694 l 260 694 l 260 434 l 174 434 l 174 694 m 87 434 l 174 434 l 174 260 l 260 260 l 260 434 l 347 434 l 347 260 l 434 260 l 434 0 l 347 0 l 347 174 l 87 174 l 87 0 l 0 0 l 0 260 l 87 260 l 87 434 z "},"Б":{"ha":434,"x_min":0,"x_max":347,"o":"m 0 694 l 347 694 l 347 608 l 87 608 l 87 434 l 260 434 l 260 347 l 87 347 l 87 87 l 260 87 l 260 0 l 0 0 l 0 694 m 260 347 l 347 347 l 347 87 l 260 87 l 260 347 z "},"В":{"ha":434,"x_min":0,"x_max":347,"o":"m 0 694 l 260 694 l 260 608 l 87 608 l 87 434 l 260 434 l 260 347 l 87 347 l 87 87 l 260 87 l 260 0 l 0 0 l 0 694 m 260 608 l 347 608 l 347 434 l 260 434 l 260 608 m 260 347 l 347 347 l 347 87 l 260 87 l 260 347 z "},"Г":{"ha":434,"x_min":0,"x_max":347,"o":"m 0 694 l 347 694 l 347 608 l 87 608 l 87 0 l 0 0 l 0 694 z "},"Д":{"ha":608,"x_min":0,"x_max":521,"o":"m 174 694 l 434 694 l 434 87 l 521 87 l 521 -87 l 434 -87 l 434 0 l 87 0 l 87 -87 l 0 -87 l 0 87 l 87 87 l 87 260 l 174 260 l 174 87 l 347 87 l 347 608 l 260 608 l 260 260 l 174 260 l 174 694 z "},"Е":{"ha":434,"x_min":0,"x_max":347,"o":"m 0 694 l 347 694 l 347 608 l 87 608 l 87 434 l 260 434 l 260 347 l 87 347 l 87 87 l 347 87 l 347 0 l 0 0 l 0 694 z "},"Ж":{"ha":521,"x_min":0,"x_max":434,"o":"m 0 694 l 87 694 l 87 434 l 0 434 l 0 694 m 174 694 l 260 694 l 260 434 l 347 434 l 347 347 l 260 347 l 260 0 l 174 0 l 174 347 l 87 347 l 87 434 l 174 434 l 174 694 m 347 694 l 434 694 l 434 434 l 347 434 l 347 694 m 0 347 l 87 347 l 87 0 l 0 0 l 0 347 m 347 347 l 434 347 l 434 0 l 347 0 l 347 347 z "},"З":{"ha":521,"x_min":0,"x_max":434,"o":"m 0 694 l 347 694 l 347 608 l 0 608 l 0 694 m 347 608 l 434 608 l 434 434 l 347 434 l 347 608 m 87 434 l 347 434 l 347 347 l 87 347 l 87 434 m 347 347 l 434 347 l 434 87 l 347 87 l 347 347 m 0 87 l 347 87 l 347 0 l 0 0 l 0 87 z "},"И":{"ha":434,"x_min":0,"x_max":347,"o":"m 0 694 l 87 694 l 87 347 l 174 347 l 174 174 l 87 174 l 87 0 l 0 0 l 0 694 m 260 694 l 347 694 l 347 0 l 260 0 l 260 347 l 174 347 l 174 521 l 260 521 l 260 694 z "},"Й":{"ha":434,"x_min":0,"x_max":347,"o":"m 0 955 l 87 955 l 87 868 l 260 868 l 260 955 l 347 955 l 347 781 l 0 781 l 0 955 m 0 694 l 87 694 l 87 347 l 174 347 l 174 174 l 87 174 l 87 0 l 0 0 l 0 694 m 260 694 l 347 694 l 347 0 l 260 0 l 260 347 l 174 347 l 174 521 l 260 521 l 260 694 z "},"К":{"ha":434,"x_min":0,"x_max":347,"o":"m 0 694 l 87 694 l 87 347 l 174 347 l 174 174 l 87 174 l 87 0 l 0 0 l 0 694 m 260 694 l 347 694 l 347 521 l 260 521 l 260 694 m 174 521 l 260 521 l 260 347 l 174 347 l 174 521 m 174 174 l 260 174 l 260 87 l 174 87 l 174 174 m 260 87 l 347 87 l 347 0 l 260 0 l 260 87 z "},"Л":{"ha":521,"x_min":0,"x_max":434,"o":"m 87 694 l 434 694 l 434 0 l 347 0 l 347 608 l 174 608 l 174 87 l 87 87 l 87 694 m 0 87 l 87 87 l 87 0 l 0 0 l 0 87 z "},"М":{"ha":521,"x_min":0,"x_max":434,"o":"m 0 694 l 87 694 l 87 521 l 174 521 l 174 347 l 87 347 l 87 0 l 0 0 l 0 694 m 347 694 l 434 694 l 434 0 l 347 0 l 347 347 l 260 347 l 260 521 l 347 521 l 347 694 m 174 347 l 260 347 l 260 174 l 174 174 l 174 347 z "},"Н":{"ha":434,"x_min":0,"x_max":347,"o":"m 0 694 l 87 694 l 87 434 l 260 434 l 260 694 l 347 694 l 347 0 l 260 0 l 260 347 l 87 347 l 87 0 l 0 0 l 0 694 z "},"О":{"ha":434,"x_min":0,"x_max":347,"o":"m 87 694 l 260 694 l 260 608 l 87 608 l 87 694 m 0 608 l 87 608 l 87 87 l 0 87 l 0 608 m 260 608 l 347 608 l 347 87 l 260 87 l 260 608 m 87 87 l 260 87 l 260 0 l 87 0 l 87 87 z "},"П":{"ha":434,"x_min":0,"x_max":347,"o":"m 0 694 l 347 694 l 347 0 l 260 0 l 260 608 l 87 608 l 87 0 l 0 0 l 0 694 z "},"Р":{"ha":434,"x_min":0,"x_max":347,"o":"m 0 694 l 260 694 l 260 608 l 87 608 l 87 347 l 260 347 l 260 260 l 87 260 l 87 0 l 0 0 l 0 694 m 260 608 l 347 608 l 347 347 l 260 347 l 260 608 z "},"С":{"ha":434,"x_min":0,"x_max":347,"o":"m 87 694 l 260 694 l 260 608 l 87 608 l 87 694 m 0 608 l 87 608 l 87 87 l 0 87 l 0 608 m 260 608 l 347 608 l 347 521 l 260 521 l 260 608 m 260 174 l 347 174 l 347 87 l 260 87 l 260 174 m 87 87 l 260 87 l 260 0 l 87 0 l 87 87 z "},"Т":{"ha":347,"x_min":0,"x_max":260,"o":"m 0 694 l 260 694 l 260 608 l 174 608 l 174 0 l 87 0 l 87 608 l 0 608 l 0 694 z "},"У":{"ha":434,"x_min":0,"x_max":347,"o":"m 0 694 l 87 694 l 87 434 l 0 434 l 0 694 m 260 694 l 347 694 l 347 347 l 260 347 l 260 694 m 87 434 l 174 434 l 174 347 l 260 347 l 260 174 l 174 174 l 174 260 l 87 260 l 87 434 m 87 174 l 174 174 l 174 0 l 87 0 l 87 174 z "},"Ф":{"ha":521,"x_min":0,"x_max":434,"o":"m 174 694 l 260 694 l 260 608 l 347 608 l 347 521 l 260 521 l 260 174 l 347 174 l 347 87 l 260 87 l 260 0 l 174 0 l 174 87 l 87 87 l 87 174 l 174 174 l 174 521 l 87 521 l 87 608 l 174 608 l 174 694 m 0 521 l 87 521 l 87 174 l 0 174 l 0 521 m 347 521 l 434 521 l 434 174 l 347 174 l 347 521 z "},"Х":{"ha":434,"x_min":0,"x_max":347,"o":"m 0 694 l 87 694 l 87 434 l 0 434 l 0 694 m 260 694 l 347 694 l 347 434 l 260 434 l 260 694 m 87 434 l 260 434 l 260 260 l 87 260 l 87 434 m 0 260 l 87 260 l 87 0 l 0 0 l 0 260 m 260 260 l 347 260 l 347 0 l 260 0 l 260 260 z "},"Ц":{"ha":521,"x_min":0,"x_max":434,"o":"m 0 694 l 87 694 l 87 87 l 260 87 l 260 694 l 347 694 l 347 87 l 434 87 l 434 -87 l 347 -87 l 347 0 l 0 0 l 0 694 z "},"Ч":{"ha":434,"x_min":0,"x_max":347,"o":"m 0 694 l 87 694 l 87 347 l 0 347 l 0 694 m 260 694 l 347 694 l 347 0 l 260 0 l 260 260 l 87 260 l 87 347 l 260 347 l 260 694 z "},"Ш":{"ha":521,"x_min":0,"x_max":434,"o":"m 0 694 l 87 694 l 87 87 l 174 87 l 174 694 l 260 694 l 260 87 l 347 87 l 347 694 l 434 694 l 434 0 l 0 0 l 0 694 z "},"Щ":{"ha":608,"x_min":0,"x_max":521,"o":"m 0 694 l 87 694 l 87 87 l 174 87 l 174 694 l 260 694 l 260 87 l 347 87 l 347 694 l 434 694 l 434 87 l 521 87 l 521 -87 l 434 -87 l 434 0 l 0 0 l 0 694 z "},"Ъ":{"ha":521,"x_min":0,"x_max":434,"o":"m 0 694 l 174 694 l 174 347 l 347 347 l 347 260 l 174 260 l 174 87 l 347 87 l 347 0 l 87 0 l 87 608 l 0 608 l 0 694 m 347 260 l 434 260 l 434 87 l 347 87 l 347 260 z "},"Ы":{"ha":608,"x_min":0,"x_max":521,"o":"m 0 694 l 87 694 l 87 347 l 260 347 l 260 260 l 87 260 l 87 87 l 260 87 l 260 0 l 0 0 l 0 694 m 434 694 l 521 694 l 521 0 l 434 0 l 434 694 m 260 260 l 347 260 l 347 87 l 260 87 l 260 260 z "},"Ь":{"ha":434,"x_min":0,"x_max":347,"o":"m 0 694 l 87 694 l 87 347 l 260 347 l 260 260 l 87 260 l 87 87 l 260 87 l 260 0 l 0 0 l 0 694 m 260 260 l 347 260 l 347 87 l 260 87 l 260 260 z "},"Э":{"ha":434,"x_min":0,"x_max":347,"o":"m 0 694 l 174 694 l 174 608 l 0 608 l 0 694 m 174 608 l 260 608 l 260 521 l 174 521 l 174 608 m 260 521 l 347 521 l 347 174 l 260 174 l 260 347 l 87 347 l 87 434 l 260 434 l 260 521 m 174 174 l 260 174 l 260 87 l 174 87 l 174 174 m 0 87 l 174 87 l 174 0 l 0 0 l 0 87 z "},"Ю":{"ha":521,"x_min":0,"x_max":434,"o":"m 0 694 l 87 694 l 87 434 l 174 434 l 174 608 l 260 608 l 260 87 l 174 87 l 174 347 l 87 347 l 87 0 l 0 0 l 0 694 m 260 694 l 347 694 l 347 608 l 260 608 l 260 694 m 347 608 l 434 608 l 434 87 l 347 87 l 347 608 m 260 87 l 347 87 l 347 0 l 260 0 l 260 87 z "},"Я":{"ha":434,"x_min":0,"x_max":347,"o":"m 87 694 l 347 694 l 347 0 l 260 0 l 260 260 l 174 260 l 174 174 l 87 174 l 87 347 l 260 347 l 260 608 l 87 608 l 87 694 m 0 608 l 87 608 l 87 347 l 0 347 l 0 608 m 0 174 l 87 174 l 87 0 l 0 0 l 0 174 z "},"а":{"ha":434,"x_min":0,"x_max":347,"o":"m 87 434 l 260 434 l 260 347 l 87 347 l 87 434 m 260 347 l 347 347 l 347 87 l 260 87 l 260 174 l 87 174 l 87 260 l 260 260 l 260 347 m 0 174 l 87 174 l 87 87 l 0 87 l 0 174 m 87 87 l 260 87 l 260 0 l 87 0 l 87 87 z "},"б":{"ha":434,"x_min":0,"x_max":347,"o":"m 174 694 l 347 694 l 347 608 l 174 608 l 174 694 m 87 608 l 174 608 l 174 521 l 87 521 l 87 608 m 0 521 l 87 521 l 87 347 l 174 347 l 174 260 l 87 260 l 87 87 l 0 87 l 0 521 m 174 434 l 260 434 l 260 347 l 174 347 l 174 434 m 260 347 l 347 347 l 347 87 l 260 87 l 260 347 m 87 87 l 260 87 l 260 0 l 87 0 l 87 87 z "},"в":{"ha":434,"x_min":0,"x_max":347,"o":"m 0 434 l 260 434 l 260 347 l 87 347 l 87 260 l 260 260 l 260 174 l 87 174 l 87 87 l 260 87 l 260 0 l 0 0 l 0 434 m 260 347 l 347 347 l 347 260 l 260 260 l 260 347 m 260 174 l 347 174 l 347 87 l 260 87 l 260 174 z "},"г":{"ha":434,"x_min":0,"x_max":347,"o":"m 0 434 l 347 434 l 347 347 l 87 347 l 87 0 l 0 0 l 0 434 z "},"д":{"ha":608,"x_min":0,"x_max":521,"o":"m 174 434 l 434 434 l 434 87 l 521 87 l 521 -87 l 434 -87 l 434 0 l 87 0 l 87 -87 l 0 -87 l 0 87 l 87 87 l 87 174 l 174 174 l 174 87 l 347 87 l 347 347 l 260 347 l 260 174 l 174 174 l 174 434 z "},"е":{"ha":434,"x_min":0,"x_max":347,"o":"m 87 434 l 260 434 l 260 347 l 87 347 l 87 434 m 0 347 l 87 347 l 87 260 l 260 260 l 260 174 l 87 174 l 87 87 l 0 87 l 0 347 m 260 347 l 347 347 l 347 260 l 260 260 l 260 347 m 87 87 l 347 87 l 347 0 l 87 0 l 87 87 z "},"ж":{"ha":521,"x_min":0,"x_max":434,"o":"m 0 434 l 87 434 l 87 260 l 0 260 l 0 434 m 174 434 l 260 434 l 260 260 l 347 260 l 347 174 l 260 174 l 260 0 l 174 0 l 174 174 l 87 174 l 87 260 l 174 260 l 174 434 m 347 434 l 434 434 l 434 260 l 347 260 l 347 434 m 0 174 l 87 174 l 87 0 l 0 0 l 0 174 m 347 174 l 434 174 l 434 0 l 347 0 l 347 174 z "},"з":{"ha":434,"x_min":0,"x_max":347,"o":"m 0 434 l 260 434 l 260 347 l 0 347 l 0 434 m 260 347 l 347 347 l 347 260 l 260 260 l 260 347 m 87 260 l 260 260 l 260 174 l 87 174 l 87 260 m 260 174 l 347 174 l 347 87 l 260 87 l 260 174 m 0 87 l 260 87 l 260 0 l 0 0 l 0 87 z "},"и":{"ha":434,"x_min":0,"x_max":347,"o":"m 0 434 l 87 434 l 87 260 l 174 260 l 174 87 l 87 87 l 87 0 l 0 0 l 0 434 m 260 434 l 347 434 l 347 0 l 260 0 l 260 260 l 174 260 l 174 347 l 260 347 l 260 434 z "},"й":{"ha":434,"x_min":0,"x_max":347,"o":"m 0 694 l 87 694 l 87 608 l 260 608 l 260 694 l 347 694 l 347 521 l 0 521 l 0 694 m 0 434 l 87 434 l 87 260 l 174 260 l 174 87 l 87 87 l 87 0 l 0 0 l 0 434 m 260 434 l 347 434 l 347 0 l 260 0 l 260 260 l 174 260 l 174 347 l 260 347 l 260 434 z "},"к":{"ha":434,"x_min":0,"x_max":347,"o":"m 0 434 l 87 434 l 87 260 l 174 260 l 174 174 l 87 174 l 87 0 l 0 0 l 0 434 m 260 434 l 347 434 l 347 347 l 260 347 l 260 434 m 174 347 l 260 347 l 260 260 l 174 260 l 174 347 m 174 174 l 260 174 l 260 87 l 174 87 l 174 174 m 260 87 l 347 87 l 347 0 l 260 0 l 260 87 z "},"л":{"ha":521,"x_min":0,"x_max":434,"o":"m 87 434 l 434 434 l 434 0 l 347 0 l 347 347 l 174 347 l 174 87 l 87 87 l 87 434 m 0 87 l 87 87 l 87 0 l 0 0 l 0 87 z "},"м":{"ha":521,"x_min":0,"x_max":434,"o":"m 0 434 l 87 434 l 87 347 l 174 347 l 174 260 l 87 260 l 87 0 l 0 0 l 0 434 m 347 434 l 434 434 l 434 0 l 347 0 l 347 260 l 260 260 l 260 347 l 347 347 l 347 434 m 174 260 l 260 260 l 260 174 l 174 174 l 174 260 z "},"н":{"ha":434,"x_min":0,"x_max":347,"o":"m 0 434 l 87 434 l 87 260 l 260 260 l 260 434 l 347 434 l 347 0 l 260 0 l 260 174 l 87 174 l 87 0 l 0 0 l 0 434 z "},"о":{"ha":434,"x_min":0,"x_max":347,"o":"m 87 434 l 260 434 l 260 347 l 87 347 l 87 434 m 0 347 l 87 347 l 87 87 l 0 87 l 0 347 m 260 347 l 347 347 l 347 87 l 260 87 l 260 347 m 87 87 l 260 87 l 260 0 l 87 0 l 87 87 z "},"п":{"ha":434,"x_min":0,"x_max":347,"o":"m 0 434 l 347 434 l 347 0 l 260 0 l 260 347 l 87 347 l 87 0 l 0 0 l 0 434 z "},"р":{"ha":434,"x_min":0,"x_max":347,"o":"m 0 434 l 87 434 l 87 347 l 174 347 l 174 260 l 87 260 l 87 87 l 260 87 l 260 0 l 87 0 l 87 -174 l 0 -174 l 0 434 m 174 434 l 260 434 l 260 347 l 174 347 l 174 434 m 260 347 l 347 347 l 347 87 l 260 87 l 260 347 z "},"с":{"ha":434,"x_min":0,"x_max":347,"o":"m 87 434 l 260 434 l 260 347 l 87 347 l 87 434 m 0 347 l 87 347 l 87 87 l 0 87 l 0 347 m 260 347 l 347 347 l 347 260 l 260 260 l 260 347 m 260 174 l 347 174 l 347 87 l 260 87 l 260 174 m 87 87 l 260 87 l 260 0 l 87 0 l 87 87 z "},"т":{"ha":347,"x_min":0,"x_max":260,"o":"m 0 434 l 260 434 l 260 347 l 174 347 l 174 0 l 87 0 l 87 347 l 0 347 l 0 434 z "},"у":{"ha":434,"x_min":0,"x_max":347,"o":"m 0 434 l 87 434 l 87 174 l 0 174 l 0 434 m 260 434 l 347 434 l 347 87 l 260 87 l 260 434 m 87 174 l 174 174 l 174 87 l 87 87 l 87 174 m 174 87 l 260 87 l 260 -87 l 174 -87 l 174 87 m 0 -87 l 174 -87 l 174 -174 l 0 -174 l 0 -87 z "},"ф":{"ha":521,"x_min":0,"x_max":434,"o":"m 174 608 l 260 608 l 260 434 l 347 434 l 347 347 l 260 347 l 260 87 l 347 87 l 347 0 l 260 0 l 260 -174 l 174 -174 l 174 0 l 87 0 l 87 87 l 174 87 l 174 347 l 87 347 l 87 434 l 174 434 l 174 608 m 0 347 l 87 347 l 87 87 l 0 87 l 0 347 m 347 347 l 434 347 l 434 87 l 347 87 l 347 347 z "},"х":{"ha":434,"x_min":0,"x_max":347,"o":"m 0 434 l 87 434 l 87 260 l 0 260 l 0 434 m 260 434 l 347 434 l 347 260 l 260 260 l 260 434 m 87 260 l 260 260 l 260 174 l 87 174 l 87 260 m 0 174 l 87 174 l 87 0 l 0 0 l 0 174 m 260 174 l 347 174 l 347 0 l 260 0 l 260 174 z "},"ц":{"ha":521,"x_min":0,"x_max":434,"o":"m 0 434 l 87 434 l 87 87 l 260 87 l 260 434 l 347 434 l 347 87 l 434 87 l 434 -87 l 347 -87 l 347 0 l 0 0 l 0 434 z "},"ч":{"ha":434,"x_min":0,"x_max":347,"o":"m 0 434 l 87 434 l 87 174 l 0 174 l 0 434 m 260 434 l 347 434 l 347 0 l 260 0 l 260 87 l 87 87 l 87 174 l 260 174 l 260 434 z "},"ш":{"ha":521,"x_min":0,"x_max":434,"o":"m 0 434 l 87 434 l 87 87 l 174 87 l 174 434 l 260 434 l 260 87 l 347 87 l 347 434 l 434 434 l 434 0 l 0 0 l 0 434 z "},"щ":{"ha":608,"x_min":0,"x_max":521,"o":"m 0 434 l 87 434 l 87 87 l 174 87 l 174 434 l 260 434 l 260 87 l 347 87 l 347 434 l 434 434 l 434 87 l 521 87 l 521 -87 l 434 -87 l 434 0 l 0 0 l 0 434 z "},"ъ":{"ha":521,"x_min":0,"x_max":434,"o":"m 0 434 l 174 434 l 174 260 l 347 260 l 347 174 l 174 174 l 174 87 l 347 87 l 347 0 l 87 0 l 87 347 l 0 347 l 0 434 m 347 174 l 434 174 l 434 87 l 347 87 l 347 174 z "},"ы":{"ha":608,"x_min":0,"x_max":521,"o":"m 0 434 l 87 434 l 87 260 l 260 260 l 260 174 l 87 174 l 87 87 l 260 87 l 260 0 l 0 0 l 0 434 m 434 434 l 521 434 l 521 0 l 434 0 l 434 434 m 260 174 l 347 174 l 347 87 l 260 87 l 260 174 z "},"ь":{"ha":434,"x_min":0,"x_max":347,"o":"m 0 434 l 87 434 l 87 260 l 260 260 l 260 174 l 87 174 l 87 87 l 260 87 l 260 0 l 0 0 l 0 434 m 260 174 l 347 174 l 347 87 l 260 87 l 260 174 z "},"э":{"ha":434,"x_min":0,"x_max":347,"o":"m 0 434 l 174 434 l 174 347 l 0 347 l 0 434 m 174 347 l 260 347 l 260 260 l 347 260 l 347 174 l 260 174 l 260 87 l 174 87 l 174 174 l 87 174 l 87 260 l 174 260 l 174 347 m 0 87 l 174 87 l 174 0 l 0 0 l 0 87 z "},"ю":{"ha":521,"x_min":0,"x_max":434,"o":"m 0 434 l 87 434 l 87 260 l 174 260 l 174 347 l 260 347 l 260 87 l 174 87 l 174 174 l 87 174 l 87 0 l 0 0 l 0 434 m 260 434 l 347 434 l 347 347 l 260 347 l 260 434 m 347 347 l 434 347 l 434 87 l 347 87 l 347 347 m 260 87 l 347 87 l 347 0 l 260 0 l 260 87 z "},"я":{"ha":434,"x_min":0,"x_max":347,"o":"m 87 434 l 347 434 l 347 0 l 260 0 l 260 174 l 87 174 l 87 260 l 260 260 l 260 347 l 87 347 l 87 434 m 0 347 l 87 347 l 87 260 l 0 260 l 0 347 m 0 174 l 87 174 l 87 0 l 0 0 l 0 174 z "},"ё":{"ha":434,"x_min":0,"x_max":347,"o":"m 0 608 l 87 608 l 87 521 l 0 521 l 0 608 m 260 608 l 347 608 l 347 521 l 260 521 l 260 608 m 87 434 l 260 434 l 260 347 l 87 347 l 87 434 m 0 347 l 87 347 l 87 260 l 260 260 l 260 174 l 87 174 l 87 87 l 0 87 l 0 347 m 260 347 l 347 347 l 347 260 l 260 260 l 260 347 m 87 87 l 347 87 l 347 0 l 87 0 l 87 87 z "},"ẞ":{"ha":521,"x_min":0,"x_max":434,"o":"m 87 694 l 260 694 l 260 608 l 87 608 l 87 694 m 0 608 l 87 608 l 87 0 l 0 0 l 0 608 m 260 608 l 347 608 l 347 521 l 260 521 l 260 608 m 174 521 l 260 521 l 260 347 l 174 347 l 174 521 m 260 347 l 347 347 l 347 260 l 260 260 l 260 347 m 347 260 l 434 260 l 434 87 l 347 87 l 347 260 m 174 87 l 347 87 l 347 0 l 174 0 l 174 87 z "},"‘":{"ha":260,"x_min":0,"x_max":174,"o":"m 87 694 l 174 694 l 174 608 l 87 608 l 87 694 m 0 608 l 87 608 l 87 521 l 174 521 l 174 434 l 0 434 l 0 608 z "},"’":{"ha":260,"x_min":0,"x_max":174,"o":"m 0 694 l 174 694 l 174 521 l 87 521 l 87 608 l 0 608 l 0 694 m 0 521 l 87 521 l 87 434 l 0 434 l 0 521 z "},"‚":{"ha":260,"x_min":0,"x_max":174,"o":"m 0 87 l 174 87 l 174 -87 l 87 -87 l 87 0 l 0 0 l 0 87 m 0 -87 l 87 -87 l 87 -174 l 0 -174 l 0 -87 z "},"“":{"ha":434,"x_min":0,"x_max":347,"o":"m 87 694 l 174 694 l 174 608 l 87 608 l 87 694 m 260 694 l 347 694 l 347 608 l 260 608 l 260 694 m 0 608 l 87 608 l 87 434 l 0 434 l 0 608 m 174 608 l 260 608 l 260 521 l 347 521 l 347 434 l 174 434 l 174 608 z "},"”":{"ha":434,"x_min":0,"x_max":347,"o":"m 0 694 l 174 694 l 174 521 l 87 521 l 87 608 l 0 608 l 0 694 m 260 694 l 347 694 l 347 521 l 260 521 l 260 694 m 0 521 l 87 521 l 87 434 l 0 434 l 0 521 m 174 521 l 260 521 l 260 434 l 174 434 l 174 521 z "},"„":{"ha":434,"x_min":0,"x_max":347,"o":"m 0 87 l 174 87 l 174 -87 l 87 -87 l 87 0 l 0 0 l 0 87 m 260 87 l 347 87 l 347 -87 l 260 -87 l 260 87 m 0 -87 l 87 -87 l 87 -174 l 0 -174 l 0 -87 m 174 -87 l 260 -87 l 260 -174 l 174 -174 l 174 -87 z "},"•":{"ha":260,"x_min":0,"x_max":174,"o":"m 0 347 l 174 347 l 174 174 l 0 174 l 0 347 z "},"…":{"ha":521,"x_min":0,"x_max":434,"o":"m 0 87 l 87 87 l 87 0 l 0 0 l 0 87 m 174 87 l 260 87 l 260 0 l 174 0 l 174 87 m 347 87 l 434 87 l 434 0 l 347 0 l 347 87 z "},"‹":{"ha":260,"x_min":0,"x_max":174,"o":"m 87 347 l 174 347 l 174 260 l 87 260 l 87 347 m 0 260 l 87 260 l 87 174 l 0 174 l 0 260 m 87 174 l 174 174 l 174 87 l 87 87 l 87 174 z "},"›":{"ha":260,"x_min":0,"x_max":174,"o":"m 0 347 l 87 347 l 87 260 l 0 260 l 0 347 m 87 260 l 174 260 l 174 174 l 87 174 l 87 260 m 0 174 l 87 174 l 87 87 l 0 87 l 0 174 z "},"€":{"ha":608,"x_min":0,"x_max":521,"o":"m 260 694 l 434 694 l 434 608 l 260 608 l 260 694 m 174 608 l 260 608 l 260 521 l 347 521 l 347 434 l 174 434 l 174 347 l 347 347 l 347 260 l 174 260 l 174 174 l 87 174 l 87 260 l 0 260 l 0 347 l 87 347 l 87 434 l 0 434 l 0 521 l 174 521 l 174 608 m 434 608 l 521 608 l 521 521 l 434 521 l 434 608 m 174 174 l 260 174 l 260 87 l 174 87 l 174 174 m 434 174 l 521 174 l 521 87 l 434 87 l 434 174 m 260 87 l 434 87 l 434 0 l 260 0 l 260 87 z "},"™":{"ha":694,"x_min":0,"x_max":608,"o":"m 0 694 l 260 694 l 260 608 l 174 608 l 174 347 l 87 347 l 87 608 l 0 608 l 0 694 m 347 694 l 434 694 l 434 608 l 521 608 l 521 694 l 608 694 l 608 347 l 521 347 l 521 521 l 434 521 l 434 347 l 347 347 l 347 694 z "}}}
